<?xml version="1.0" encoding="utf-8"?>
<!-- Generator: Adobe Illustrator 28.3.0, SVG Export Plug-In . SVG Version: 6.00 Build 0)  -->
<svg version="1.1" id="Layer_1" xmlns="http://www.w3.org/2000/svg" xmlns:xlink="http://www.w3.org/1999/xlink" x="0px" y="0px"
	 viewBox="0 0 108.35 51.74" style="enable-background:new 0 0 108.35 51.74;" xml:space="preserve">
<style type="text/css">
	.st0{fill:none;stroke:#000000;stroke-width:5;stroke-miterlimit:10;}
	.st1{fill:#39B54A;}
	.st2{fill:none;stroke:#39B54A;stroke-width:6;stroke-miterlimit:10;}
	.st3{fill:#FFFFFF;}
	.st4{fill:none;stroke:#FFFFFF;stroke-width:3;stroke-miterlimit:10;}
	.st5{stroke:#FFFFFF;stroke-miterlimit:10;}
	.st6{fill:#F7941D;}
	.st7{fill:#00AEEF;}
	.st8{fill:#662D91;}
	.st9{fill:#92278F;}
	.st10{fill:#662D91;stroke:#662D91;stroke-width:4;stroke-miterlimit:10;}
	.st11{fill:none;stroke:#FFFFFF;stroke-miterlimit:10;}
	.st12{fill:#FFFFFF;stroke:#FFFFFF;stroke-width:2;stroke-miterlimit:10;}
	.st13{fill:none;stroke:#92278F;stroke-width:4;stroke-miterlimit:10;}
	.st14{fill:none;stroke:#FFFFFF;stroke-width:2;stroke-miterlimit:10;}
</style>
<g id="Classsic">
	<g id="Eye">
		<ellipse class="st0" cx="-62.71" cy="-58.66" rx="50.71" ry="25.19"/>
		<path class="st1" d="M-57.43-47.72c0.01,0.7-0.25,1.3-0.68,1.84c-0.27,0.33-0.61,0.46-1.02,0.32c-0.41-0.14-0.38-0.52-0.38-0.84
			c0.01-0.81,0.29-1.49,1.07-1.88C-57.75-48.63-57.45-48.46-57.43-47.72L-57.43-47.72z M-75.66-69.79
			c-0.02-0.04-0.04-0.07-0.04-0.11c0.6-0.56,1.25-1.08,1.92-1.55c0.09,0.03,0.17,0.09,0.23,0.17c0.22,0.25,0.41,0.54,0.57,0.83
			c0.15,0.26-0.15,0.78,0.33,0.83c0.41,0.04,0.94,0.22,1.25-0.14c1-1.2,2.29-1.19,3.69-1.09c0.8,0.06,1.6-1.03,1.49-1.82
			c-0.05-0.35-0.37-0.32-0.55-0.16c-0.32,0.28-0.59,0.64-0.87,0.97c-0.68,0.8-2.84,0.87-3.55,0.12c-0.14-0.15-0.22-0.32-0.07-0.51
			c0.12-0.15,0.23-0.34,0.39-0.43c0.86-0.48,1.74-0.95,2.65-1.27c0.87-0.22,1.77-0.37,2.7-0.45c0.23,0.01,0.45,0.03,0.69,0.07
			c0.89,0.14,1.84,0.33,2.58,0.79c1.1,0.68,2.09,0.58,3.14,0.06c0.11-0.05,0.22-0.11,0.32-0.17c6.02,1.93,10.58,7.1,11.64,13.46
			c-0.22,0.19-0.44,0.39-0.68,0.57c-0.64,0.47-0.95,1.06-0.89,1.87c0.05,0.63,0.04,1.32-0.8,1.49c-0.7,0.14-1.14-0.3-1.4-1.34
			c-0.15-0.61-0.22-1.25-0.42-1.84c-0.33-1-0.94-1.69-2.12-1.62c-1.01,0.06-1.72-0.56-2.49-1.07c-0.33-0.21-0.76-0.55-1-0.12
			c-0.17,0.29,0.18,0.74,0.54,0.92c0.34,0.17,0.73,0.25,1.09,0.4c0.65,0.27,0.82,0.64,0.51,1.26c-0.51,1.02-1.39,1.6-2.46,1.89
			c-0.71,0.19-1.22-0.24-1.61-0.77c-0.71-0.98-1.39-1.99-2.08-2.99c-0.17-0.24-0.32-0.49-0.5-0.71c-0.09-0.11-0.26-0.17-0.38-0.06
			c-0.1,0.09-0.22,0.25-0.2,0.36c0.05,0.28,0.13,0.57,0.26,0.83c0.7,1.35,1.64,2.52,2.69,3.6c0.34,0.35,0.81,0.5,1.26,0.7
			c0.95,0.42,1.09,0.95,0.51,1.84c-0.46,0.7-1.08,1.26-1.75,1.74c-1.12,0.8-1.52,1.79-1.11,3.15c0.28,0.93,0.05,1.85-0.66,2.56
			c-0.49,0.5-0.82,1.06-1.03,1.72c-0.16,0.5-0.42,0.98-0.72,1.42c-1.44,2.11-4.26,2.06-5.7-0.08c-0.8-1.2-1.35-2.46-1.12-3.95
			c0.13-0.89-0.06-1.72-0.44-2.54c-0.28-0.61-0.44-1.28-0.67-1.92c-0.5-1.37-1.29-1.92-2.75-1.89c-0.43,0.01-0.87,0.11-1.3,0.13
			c-2.51,0.12-3.98-1.73-3.61-4.22c0.45-3.07,2.05-5.05,5-5.95c1.48-1.12,1.75-1.11,3.3-0.05c1.13,0.77,2.37,1.12,3.71,0.67
			c0.57-0.19,1.12-0.25,1.68-0.16c-0.55-0.31-0.96-0.92-1.64-0.94c-0.87-0.03-1.75-0.54-2.61,0.21c-0.33,0.29-0.93,0.16-1.19-0.21
			c-0.7-1.02-1.47-0.64-2.26-0.22c-0.43,0.23-0.86,0.4-1.35,0.42c-0.39,0-0.78,0.02-1.16-0.01c-0.7-0.06-1.05-0.4-1.03-0.96
			c0.03-0.67,0.51-1.29,1.07-1.35c0.29-0.03,0.58,0.04,0.87,0c0.3-0.03,0.35-0.28,0.35-0.54c-0.01-0.29-0.11-0.43-0.44-0.36
			c-0.33,0.06-0.83,0.13-0.93-0.18C-74.99-69.05-75.39-69.36-75.66-69.79L-75.66-69.79z"/>
		<circle class="st2" cx="-63.63" cy="-58.66" r="19.05"/>
		<circle class="st3" cx="-74.37" cy="-70.96" r="4.99"/>
		<circle class="st3" cx="-52.58" cy="-43.81" r="2.44"/>
		<circle class="st4" cx="-63.63" cy="-58.66" r="17.29"/>
	</g>
	<g id="Text_00000008111924297555855850000015118607170796404896_">
		<g>
			<path d="M-107.06-55.79v-7.92c0-4.31,2.33-6.64,6.32-6.64c4.08,0,6.35,2.33,6.5,6.64h-4.14c-0.12-1.86-0.82-2.62-2.39-2.62
				c-1.25,0-1.98,0.82-1.98,2.62v7.92c0,1.75,0.7,2.56,1.98,2.56c1.6,0,2.33-0.76,2.45-2.56h4.14c-0.09,4.28-2.45,6.58-6.58,6.58
				C-104.73-49.21-107.06-51.51-107.06-55.79z"/>
			<path d="M-81.6-53.49v3.93H-91.8v-20.39h4.14v16.46H-81.6z"/>
			<path d="M-72.08-52.94h-4.31l-0.67,3.38h-4.28l4.89-20.39h4.43l4.89,20.39h-4.28L-72.08-52.94z M-72.9-56.87l-0.47-2.33
				c-0.26-1.46-0.61-3.93-0.82-5.59h-0.12c-0.2,1.66-0.52,4.14-0.82,5.59l-0.47,2.33H-72.9z"/>
			<path d="M-66.49-55.5h4.25c0,1.63,0.82,2.33,2.13,2.33c1.37,0,2.04-0.79,2.04-1.81c0-3.38-7.98-3.79-7.98-9.99
				c0-3.12,2.19-5.39,5.94-5.39c3.76,0,6.03,2.24,6.03,6h-4.25c0-1.34-0.61-2.01-1.81-2.01c-1.08,0-1.72,0.58-1.72,1.51
				c0,3.2,8.1,3.41,8.1,9.9c0,3.35-2.36,5.8-6.41,5.8C-64.04-49.15-66.49-51.39-66.49-55.5z"/>
			<path d="M-52.54-55.5h4.25c0,1.63,0.82,2.33,2.13,2.33c1.37,0,2.04-0.79,2.04-1.81c0-3.38-7.98-3.79-7.98-9.99
				c0-3.12,2.19-5.39,5.94-5.39c3.76,0,6.03,2.24,6.03,6h-4.25c0-1.34-0.61-2.01-1.81-2.01c-1.08,0-1.72,0.58-1.72,1.51
				c0,3.2,8.1,3.41,8.1,9.9c0,3.35-2.36,5.8-6.41,5.8C-50.09-49.15-52.54-51.39-52.54-55.5z"/>
			<path d="M-33.49-69.95v20.39h-4.14v-20.39H-33.49z"/>
			<path d="M-30.46-55.79v-7.92c0-4.31,2.33-6.64,6.32-6.64c4.08,0,6.35,2.33,6.5,6.64h-4.14c-0.12-1.86-0.82-2.62-2.39-2.62
				c-1.25,0-1.98,0.82-1.98,2.62v7.92c0,1.75,0.7,2.56,1.98,2.56c1.6,0,2.33-0.76,2.45-2.56h4.14c-0.09,4.28-2.45,6.58-6.58,6.58
				C-28.13-49.21-30.46-51.51-30.46-55.79z"/>
		</g>
		<g>
			<g>
				<path d="M-109.91-55.67v-8.4c0-4.57,2.47-7.04,6.7-7.04c4.32,0,6.73,2.47,6.88,7.04h-4.38c-0.12-1.98-0.86-2.78-2.53-2.78
					c-1.33,0-2.1,0.86-2.1,2.78v8.4c0,1.85,0.74,2.72,2.1,2.72c1.7,0,2.47-0.8,2.59-2.72h4.38c-0.09,4.54-2.59,6.98-6.98,6.98
					C-107.44-48.69-109.91-51.13-109.91-55.67z"/>
				<path d="M-82.93-53.23v4.17h-10.8v-21.61h4.38v17.44H-82.93z"/>
				<path d="M-72.84-52.64h-4.57l-0.71,3.58h-4.54l5.19-21.61h4.69l5.19,21.61h-4.54L-72.84-52.64z M-73.71-56.81l-0.49-2.47
					c-0.28-1.54-0.65-4.17-0.86-5.93h-0.12c-0.22,1.76-0.56,4.38-0.86,5.93l-0.49,2.47H-73.71z"/>
				<path d="M-66.92-55.36h4.51c0,1.73,0.86,2.47,2.25,2.47c1.45,0,2.16-0.83,2.16-1.91c0-3.58-8.46-4.01-8.46-10.59
					c0-3.3,2.32-5.71,6.3-5.71s6.39,2.38,6.39,6.36h-4.51c0-1.42-0.65-2.13-1.91-2.13c-1.14,0-1.82,0.62-1.82,1.6
					c0,3.4,8.58,3.61,8.58,10.5c0,3.55-2.5,6.14-6.79,6.14C-64.32-48.63-66.92-51.01-66.92-55.36z"/>
				<path d="M-52.14-55.36h4.51c0,1.73,0.86,2.47,2.25,2.47c1.45,0,2.16-0.83,2.16-1.91c0-3.58-8.46-4.01-8.46-10.59
					c0-3.3,2.32-5.71,6.3-5.71s6.39,2.38,6.39,6.36h-4.51c0-1.42-0.65-2.13-1.91-2.13c-1.14,0-1.82,0.62-1.82,1.6
					c0,3.4,8.58,3.61,8.58,10.5c0,3.55-2.5,6.14-6.79,6.14C-49.54-48.63-52.14-51.01-52.14-55.36z"/>
				<path d="M-31.95-70.67v21.61h-4.38v-21.61H-31.95z"/>
				<path d="M-28.74-55.67v-8.4c0-4.57,2.47-7.04,6.7-7.04c4.32,0,6.73,2.47,6.88,7.04h-4.38c-0.12-1.98-0.86-2.78-2.53-2.78
					c-1.33,0-2.1,0.86-2.1,2.78v8.4c0,1.85,0.74,2.72,2.1,2.72c1.7,0,2.47-0.8,2.59-2.72h4.38c-0.09,4.54-2.59,6.98-6.98,6.98
					C-26.27-48.69-28.74-51.13-28.74-55.67z"/>
			</g>
			<g>
				<path class="st5" d="M-109.91-55.67v-8.4c0-4.57,2.47-7.04,6.7-7.04c4.32,0,6.73,2.47,6.88,7.04h-4.38
					c-0.12-1.98-0.86-2.78-2.53-2.78c-1.33,0-2.1,0.86-2.1,2.78v8.4c0,1.85,0.74,2.72,2.1,2.72c1.7,0,2.47-0.8,2.59-2.72h4.38
					c-0.09,4.54-2.59,6.98-6.98,6.98C-107.44-48.69-109.91-51.13-109.91-55.67z"/>
				<path class="st5" d="M-82.93-53.23v4.17h-10.8v-21.61h4.38v17.44H-82.93z"/>
				<path class="st5" d="M-72.84-52.64h-4.57l-0.71,3.58h-4.54l5.19-21.61h4.69l5.19,21.61h-4.54L-72.84-52.64z M-73.71-56.81
					l-0.49-2.47c-0.28-1.54-0.65-4.17-0.86-5.93h-0.12c-0.22,1.76-0.56,4.38-0.86,5.93l-0.49,2.47H-73.71z"/>
				<path class="st5" d="M-66.92-55.36h4.51c0,1.73,0.86,2.47,2.25,2.47c1.45,0,2.16-0.83,2.16-1.91c0-3.58-8.46-4.01-8.46-10.59
					c0-3.3,2.32-5.71,6.3-5.71s6.39,2.38,6.39,6.36h-4.51c0-1.42-0.65-2.13-1.91-2.13c-1.14,0-1.82,0.62-1.82,1.6
					c0,3.4,8.58,3.61,8.58,10.5c0,3.55-2.5,6.14-6.79,6.14C-64.32-48.63-66.92-51.01-66.92-55.36z"/>
				<path class="st5" d="M-52.14-55.36h4.51c0,1.73,0.86,2.47,2.25,2.47c1.45,0,2.16-0.83,2.16-1.91c0-3.58-8.46-4.01-8.46-10.59
					c0-3.3,2.32-5.71,6.3-5.71s6.39,2.38,6.39,6.36h-4.51c0-1.42-0.65-2.13-1.91-2.13c-1.14,0-1.82,0.62-1.82,1.6
					c0,3.4,8.58,3.61,8.58,10.5c0,3.55-2.5,6.14-6.79,6.14C-49.54-48.63-52.14-51.01-52.14-55.36z"/>
				<path class="st5" d="M-31.95-70.67v21.61h-4.38v-21.61H-31.95z"/>
				<path class="st5" d="M-28.74-55.67v-8.4c0-4.57,2.47-7.04,6.7-7.04c4.32,0,6.73,2.47,6.88,7.04h-4.38
					c-0.12-1.98-0.86-2.78-2.53-2.78c-1.33,0-2.1,0.86-2.1,2.78v8.4c0,1.85,0.74,2.72,2.1,2.72c1.7,0,2.47-0.8,2.59-2.72h4.38
					c-0.09,4.54-2.59,6.98-6.98,6.98C-26.27-48.69-28.74-51.13-28.74-55.67z"/>
			</g>
		</g>
	</g>
</g>
<g id="Streak">
	<g id="Flame">
		<g>
			<path class="st6" d="M71.96-36.99c9.24-7.9,6.03-18.38,3.94-22.98c-0.22-0.48-0.92-0.36-0.99,0.16
				c-0.14,1.06-0.72,2.05-2.38,1.99c-3.32-0.12-3.19-3.3-3.16-3.69c0-0.03,0.01-0.05,0.01-0.07c3.46-14.33-11.61-23.66-15.35-25.73
				c-0.36-0.2-0.8,0.08-0.77,0.49c0.08,1.26,0.26,3.8,0.64,7.54c0.57,5.56-4.36,5.56-5.43,5.3c-1.01-0.24-4.05,10.82-4.39,12.07
				c-0.02,0.07-0.02,0.15-0.01,0.22c0.16,0.88,1.06,6.81-2.74,7.28c-3.55,0.44-4.03-5.71-4.09-7.36c-0.02-0.42-0.5-0.66-0.83-0.4
				c-0.7,0.57-1.9,2.51-3.76,8.33c-2.78,8.74,2.92,15.54,5.01,17.68c0.32,0.32,0.1,0.9-0.36,0.89c-0.01,0-0.03,0-0.04,0
				c-0.5-0.02-0.77,0.57-0.4,0.91c7.94,7.37,17.49,7.14,17.49,7.14l0,0c4.21,0.12,13.42-4.08,17.38-6.52
				c0.38-0.24,0.31-0.84-0.13-0.94C70.26-35.01,71.96-36.99,71.96-36.99z"/>
			<path class="st6" d="M40.84-76.75c-2.4-0.76-2.78,8.59-2.78,8.59S43.24-75.99,40.84-76.75z"/>
			<path class="st6" d="M74.05-76.52c0,0,0.51-2.37-1.52-3.88c-2.02-1.52,0.76,7.93,0.76,7.93L74.05-76.52z"/>
			<path class="st6" d="M47.28-89.88c-2.02-2.02,0.88,11.74,0.88,11.74S49.3-87.86,47.28-89.88z"/>
		</g>
		<path class="st3" d="M62.54-33.74c0.01,0.82-0.29,1.53-0.8,2.16c-0.31,0.39-0.72,0.54-1.2,0.37c-0.48-0.16-0.45-0.61-0.44-0.99
			c0.02-0.96,0.34-1.75,1.26-2.21C62.17-34.81,62.53-34.62,62.54-33.74L62.54-33.74z M41.1-59.7c-0.03-0.04-0.04-0.09-0.05-0.13
			c0.71-0.66,1.46-1.27,2.26-1.82c0.1,0.04,0.2,0.11,0.27,0.2c0.26,0.3,0.48,0.63,0.68,0.98c0.18,0.31-0.18,0.92,0.39,0.97
			c0.48,0.05,1.11,0.26,1.47-0.17c1.18-1.41,2.7-1.4,4.33-1.28c0.94,0.07,1.88-1.21,1.75-2.15c-0.06-0.41-0.44-0.38-0.65-0.19
			c-0.38,0.33-0.69,0.75-1.02,1.14c-0.8,0.94-3.34,1.02-4.18,0.14c-0.17-0.18-0.25-0.38-0.08-0.6c0.14-0.18,0.27-0.4,0.45-0.5
			c1.02-0.56,2.04-1.11,3.11-1.5c1.03-0.26,2.09-0.44,3.17-0.53c0.27,0.01,0.53,0.04,0.81,0.08c1.04,0.17,2.16,0.39,3.04,0.93
			c1.3,0.8,2.45,0.68,3.69,0.07c0.13-0.06,0.26-0.13,0.38-0.2C68-62,73.37-55.92,74.62-48.44c-0.26,0.23-0.52,0.46-0.8,0.67
			c-0.75,0.55-1.11,1.24-1.04,2.2c0.06,0.75,0.05,1.55-0.94,1.75c-0.83,0.16-1.35-0.35-1.65-1.58c-0.18-0.72-0.26-1.47-0.5-2.17
			c-0.39-1.17-1.11-1.99-2.5-1.9c-1.18,0.07-2.03-0.66-2.93-1.25c-0.38-0.25-0.89-0.64-1.18-0.14c-0.2,0.34,0.21,0.87,0.64,1.09
			c0.4,0.2,0.86,0.29,1.28,0.47c0.76,0.32,0.96,0.75,0.6,1.48c-0.59,1.2-1.64,1.89-2.89,2.22c-0.83,0.22-1.44-0.28-1.89-0.9
			c-0.84-1.15-1.63-2.34-2.44-3.51c-0.19-0.28-0.37-0.58-0.59-0.84c-0.1-0.13-0.31-0.2-0.45-0.07c-0.12,0.11-0.26,0.29-0.24,0.42
			c0.06,0.33,0.15,0.67,0.31,0.97c0.82,1.59,1.93,2.96,3.16,4.24c0.4,0.41,0.96,0.59,1.48,0.82c1.12,0.49,1.28,1.12,0.6,2.16
			c-0.54,0.82-1.27,1.48-2.05,2.05c-1.32,0.95-1.79,2.1-1.3,3.71c0.33,1.1,0.06,2.17-0.77,3.01c-0.58,0.58-0.96,1.24-1.22,2.02
			c-0.19,0.59-0.5,1.16-0.85,1.67c-1.69,2.49-5.01,2.42-6.7-0.09c-0.95-1.41-1.58-2.89-1.32-4.65c0.16-1.04-0.07-2.02-0.52-2.99
			c-0.33-0.72-0.51-1.51-0.78-2.26c-0.58-1.61-1.51-2.25-3.24-2.23c-0.51,0.01-1.02,0.13-1.53,0.15c-2.95,0.14-4.68-2.04-4.25-4.96
			c0.53-3.61,2.41-5.93,5.88-6.99c1.74-1.32,2.05-1.3,3.88-0.06c1.33,0.91,2.78,1.32,4.37,0.79c0.67-0.22,1.32-0.3,1.97-0.18
			c-0.64-0.37-1.13-1.08-1.93-1.11c-1.03-0.04-2.06-0.63-3.07,0.25c-0.39,0.34-1.1,0.19-1.4-0.24c-0.82-1.2-1.73-0.75-2.66-0.25
			c-0.5,0.27-1.02,0.47-1.59,0.5c-0.46,0-0.91,0.03-1.37-0.01c-0.83-0.07-1.23-0.47-1.21-1.13c0.03-0.78,0.6-1.52,1.26-1.58
			c0.34-0.03,0.68,0.04,1.02,0c0.35-0.04,0.42-0.33,0.41-0.63c-0.01-0.34-0.13-0.5-0.52-0.43c-0.39,0.08-0.98,0.16-1.09-0.21
			C41.9-58.83,41.42-59.19,41.1-59.7L41.1-59.7z"/>
	</g>
	<g id="Text_00000078030243858464235850000007891356555798334646_">
		<g>
			<path d="M9.8-56.11h4.6c0,1.77,0.88,2.53,2.3,2.53c1.48,0,2.21-0.85,2.21-1.96c0-3.67-8.63-4.11-8.63-10.84
				c0-3.38,2.36-5.85,6.43-5.85c4.06,0,6.52,2.43,6.52,6.51h-4.6c0-1.45-0.66-2.18-1.95-2.18c-1.17,0-1.86,0.63-1.86,1.64
				c0,3.48,8.76,3.7,8.76,10.75c0,3.64-2.55,6.29-6.93,6.29C12.45-49.22,9.8-51.65,9.8-56.11z"/>
			<path d="M38.01-67.52h-4.32v17.86h-4.6v-17.86h-4.32v-4.27h13.23V-67.52z"/>
			<path d="M46.17-57.09h-1.58v7.43h-4.47v-22.13h6.4c4.38,0,6.96,2.72,6.96,7.37c0,3-1.1,5.22-3.06,6.39l4.16,8.38H49.7
				L46.17-57.09z M44.59-61.36h1.86c1.58,0,2.43-1.08,2.43-3.07c0-2.02-0.85-3.1-2.43-3.1h-1.86V-61.36z"/>
			<path d="M68.38-53.93v4.27H56.69v-22.13h11.38v4.27h-6.9v4.58h6.27v4.11h-6.27v4.9H68.38z"/>
			<path d="M79.6-53.33h-4.66l-0.72,3.67h-4.63l5.29-22.13h4.79l5.29,22.13h-4.63L79.6-53.33z M78.72-57.6l-0.5-2.53
				c-0.28-1.58-0.66-4.27-0.88-6.07h-0.13c-0.22,1.8-0.57,4.49-0.88,6.07l-0.5,2.53H78.72z"/>
			<path d="M92.65-58.04l-1.23,1.99v6.39h-4.41v-22.13h4.41v8.47l1.13-2.47l3.09-6.01h5.1l-5.61,9.67l6.55,12.46h-5.04L92.65-58.04z
				"/>
		</g>
		<g>
			<path class="st5" d="M6.51-55.96h4.89c0,1.88,0.94,2.68,2.45,2.68c1.57,0,2.35-0.9,2.35-2.08c0-3.89-9.18-4.36-9.18-11.49
				c0-3.59,2.51-6.2,6.84-6.2c4.32,0,6.94,2.58,6.94,6.9H15.9c0-1.54-0.7-2.31-2.08-2.31c-1.24,0-1.98,0.67-1.98,1.74
				c0,3.69,9.32,3.92,9.32,11.39c0,3.85-2.71,6.67-7.37,6.67C9.33-48.66,6.51-51.24,6.51-55.96z"/>
			<path class="st5" d="M36.5-68.06h-4.59v18.93h-4.89v-18.93h-4.59v-4.52H36.5V-68.06z"/>
			<path class="st5" d="M45.18-57H43.5v7.87h-4.76v-23.46h6.8c4.66,0,7.41,2.88,7.41,7.81c0,3.18-1.17,5.53-3.25,6.77l4.42,8.88
				h-5.19L45.18-57z M43.5-61.52h1.98c1.68,0,2.58-1.14,2.58-3.25c0-2.14-0.9-3.28-2.58-3.28H43.5V-61.52z"/>
			<path class="st5" d="M68.8-53.65v4.52H56.37v-23.46h12.1v4.52h-7.34v4.86h6.67v4.36h-6.67v5.19H68.8z"/>
			<path class="st5" d="M80.73-53.01h-4.96L75-49.13h-4.93l5.63-23.46h5.09l5.63,23.46H81.5L80.73-53.01z M79.79-57.54l-0.54-2.68
				c-0.3-1.68-0.7-4.52-0.94-6.43h-0.13c-0.23,1.91-0.6,4.76-0.94,6.43l-0.54,2.68H79.79z"/>
			<path class="st5" d="M94.6-58.01l-1.31,2.11v6.77H88.6v-23.46h4.69v8.98l1.21-2.61l3.28-6.37h5.43l-5.96,10.25l6.97,13.2h-5.36
				L94.6-58.01z"/>
		</g>
	</g>
</g>
<g id="Rank">
	<g>
		<g>
			<path d="M-60.46,47.38h-28.13V2.31c0-1.35,1.09-2.44,2.44-2.44h23.24c1.35,0,2.44,1.09,2.44,2.44V47.38z"/>
			<g>
				<path class="st3" d="M-84.66,13.83h3.27c0.71,0,1.29-0.58,1.29-1.29V5.93c0-0.71-0.58-1.29-1.29-1.29h-3.27
					c-0.71,0-1.29,0.58-1.29,1.29v6.61C-85.95,13.25-85.37,13.83-84.66,13.83z"/>
				<path class="st3" d="M-75.93,13.83h3.27c0.71,0,1.29-0.58,1.29-1.29V5.93c0-0.71-0.58-1.29-1.29-1.29h-3.27
					c-0.71,0-1.29,0.58-1.29,1.29v6.61C-77.22,13.25-76.64,13.83-75.93,13.83z"/>
				<path class="st3" d="M-63.93,4.64h-3.27c-0.71,0-1.29,0.58-1.29,1.29v6.61c0,0.71,0.58,1.29,1.29,1.29h3.27
					c0.71,0,1.29-0.58,1.29-1.29V5.93C-62.64,5.22-63.21,4.64-63.93,4.64z"/>
				<path class="st3" d="M-84.66,24.99h3.27c0.71,0,1.29-0.58,1.29-1.29v-6.61c0-0.71-0.58-1.29-1.29-1.29h-3.27
					c-0.71,0-1.29,0.58-1.29,1.29v6.61C-85.95,24.41-85.37,24.99-84.66,24.99z"/>
				<path class="st3" d="M-75.93,24.99h3.27c0.71,0,1.29-0.58,1.29-1.29v-6.61c0-0.71-0.58-1.29-1.29-1.29h-3.27
					c-0.71,0-1.29,0.58-1.29,1.29v6.61C-77.22,24.41-76.64,24.99-75.93,24.99z"/>
				<path class="st3" d="M-63.93,15.8h-3.27c-0.71,0-1.29,0.58-1.29,1.29v6.61c0,0.71,0.58,1.29,1.29,1.29h3.27
					c0.71,0,1.29-0.58,1.29-1.29v-6.61C-62.64,16.38-63.21,15.8-63.93,15.8z"/>
				<path class="st3" d="M-80.1,34.85v-6.61c0-0.71-0.58-1.29-1.29-1.29h-3.27c-0.71,0-1.29,0.58-1.29,1.29v6.61
					c0,0.71,0.58,1.29,1.29,1.29h3.27C-80.68,36.14-80.1,35.56-80.1,34.85z"/>
				<path class="st3" d="M-75.93,36.14h3.27c0.71,0,1.29-0.58,1.29-1.29v-6.61c0-0.71-0.58-1.29-1.29-1.29h-3.27
					c-0.71,0-1.29,0.58-1.29,1.29v6.61C-77.22,35.56-76.64,36.14-75.93,36.14z"/>
				<path class="st3" d="M-63.93,26.95h-3.27c-0.71,0-1.29,0.58-1.29,1.29v6.61c0,0.71,0.58,1.29,1.29,1.29h3.27
					c0.71,0,1.29-0.58,1.29-1.29v-6.61C-62.64,27.53-63.21,26.95-63.93,26.95z"/>
				<path class="st3" d="M-66.62,37.73h-15.34c-0.59,0-1.06,0.47-1.06,1.06v7.38h17.46v-7.38C-65.56,38.21-66.04,37.73-66.62,37.73z
					"/>
			</g>
		</g>
		<g>
			<path d="M-37.31,47.38h-28.13V2.31c0-1.35,1.09-2.44,2.44-2.44h23.24c1.35,0,2.44,1.09,2.44,2.44V47.38z"/>
			<g>
				<path class="st3" d="M-61.5,13.83h3.27c0.71,0,1.29-0.58,1.29-1.29V5.93c0-0.71-0.58-1.29-1.29-1.29h-3.27
					c-0.71,0-1.29,0.58-1.29,1.29v6.61C-62.79,13.25-62.22,13.83-61.5,13.83z"/>
				<path class="st3" d="M-52.77,13.83h3.27c0.71,0,1.29-0.58,1.29-1.29V5.93c0-0.71-0.58-1.29-1.29-1.29h-3.27
					c-0.71,0-1.29,0.58-1.29,1.29v6.61C-54.06,13.25-53.48,13.83-52.77,13.83z"/>
				<path class="st3" d="M-40.77,4.64h-3.27c-0.71,0-1.29,0.58-1.29,1.29v6.61c0,0.71,0.58,1.29,1.29,1.29h3.27
					c0.71,0,1.29-0.58,1.29-1.29V5.93C-39.48,5.22-40.06,4.64-40.77,4.64z"/>
				<path class="st3" d="M-61.5,24.99h3.27c0.71,0,1.29-0.58,1.29-1.29v-6.61c0-0.71-0.58-1.29-1.29-1.29h-3.27
					c-0.71,0-1.29,0.58-1.29,1.29v6.61C-62.79,24.41-62.22,24.99-61.5,24.99z"/>
				<path class="st3" d="M-52.77,24.99h3.27c0.71,0,1.29-0.58,1.29-1.29v-6.61c0-0.71-0.58-1.29-1.29-1.29h-3.27
					c-0.71,0-1.29,0.58-1.29,1.29v6.61C-54.06,24.41-53.48,24.99-52.77,24.99z"/>
				<path class="st3" d="M-40.77,15.8h-3.27c-0.71,0-1.29,0.58-1.29,1.29v6.61c0,0.71,0.58,1.29,1.29,1.29h3.27
					c0.71,0,1.29-0.58,1.29-1.29v-6.61C-39.48,16.38-40.06,15.8-40.77,15.8z"/>
				<path class="st3" d="M-56.94,34.85v-6.61c0-0.71-0.58-1.29-1.29-1.29h-3.27c-0.71,0-1.29,0.58-1.29,1.29v6.61
					c0,0.71,0.58,1.29,1.29,1.29h3.27C-57.52,36.14-56.94,35.56-56.94,34.85z"/>
				<path class="st3" d="M-52.77,36.14h3.27c0.71,0,1.29-0.58,1.29-1.29v-6.61c0-0.71-0.58-1.29-1.29-1.29h-3.27
					c-0.71,0-1.29,0.58-1.29,1.29v6.61C-54.06,35.56-53.48,36.14-52.77,36.14z"/>
				<path class="st3" d="M-40.77,26.95h-3.27c-0.71,0-1.29,0.58-1.29,1.29v6.61c0,0.71,0.58,1.29,1.29,1.29h3.27
					c0.71,0,1.29-0.58,1.29-1.29v-6.61C-39.48,27.53-40.06,26.95-40.77,26.95z"/>
				<path class="st3" d="M-43.46,37.73h-15.34c-0.59,0-1.06,0.47-1.06,1.06v7.38h17.46v-7.38C-42.4,38.21-42.88,37.73-43.46,37.73z"
					/>
			</g>
		</g>
		<g>
			<path class="st7" d="M-46.67,47.66h-33.11V-5.83c0-1.35,1.09-2.44,2.44-2.44h28.22c1.35,0,2.44,1.09,2.44,2.44V47.66z"/>
			<g>
				<path class="st3" d="M-75.15,8.17h3.85c0.84,0,1.52-0.68,1.52-1.52v-7.78c0-0.84-0.68-1.52-1.52-1.52h-3.85
					c-0.84,0-1.52,0.68-1.52,1.52v7.78C-76.67,7.49-75.99,8.17-75.15,8.17z"/>
				<path class="st3" d="M-64.88,8.17h3.85c0.84,0,1.52-0.68,1.52-1.52v-7.78c0-0.84-0.68-1.52-1.52-1.52h-3.85
					c-0.84,0-1.52,0.68-1.52,1.52v7.78C-66.39,7.49-65.71,8.17-64.88,8.17z"/>
				<path class="st3" d="M-50.75-2.64h-3.85c-0.84,0-1.52,0.68-1.52,1.52v7.78c0,0.84,0.68,1.52,1.52,1.52h3.85
					c0.84,0,1.52-0.68,1.52-1.52v-7.78C-49.23-1.96-49.91-2.64-50.75-2.64z"/>
				<path class="st3" d="M-75.15,21.3h3.85c0.84,0,1.52-0.68,1.52-1.52v-7.78c0-0.84-0.68-1.52-1.52-1.52h-3.85
					c-0.84,0-1.52,0.68-1.52,1.52v7.78C-76.67,20.62-75.99,21.3-75.15,21.3z"/>
				<path class="st3" d="M-64.88,21.3h3.85c0.84,0,1.52-0.68,1.52-1.52v-7.78c0-0.84-0.68-1.52-1.52-1.52h-3.85
					c-0.84,0-1.52,0.68-1.52,1.52v7.78C-66.39,20.62-65.71,21.3-64.88,21.3z"/>
				<path class="st3" d="M-50.75,10.49h-3.85c-0.84,0-1.52,0.68-1.52,1.52v7.78c0,0.84,0.68,1.52,1.52,1.52h3.85
					c0.84,0,1.52-0.68,1.52-1.52v-7.78C-49.23,11.17-49.91,10.49-50.75,10.49z"/>
				<path class="st3" d="M-69.78,32.91v-7.78c0-0.84-0.68-1.52-1.52-1.52h-3.85c-0.84,0-1.52,0.68-1.52,1.52v7.78
					c0,0.84,0.68,1.52,1.52,1.52h3.85C-70.46,34.43-69.78,33.75-69.78,32.91z"/>
				<path class="st3" d="M-64.88,34.43h3.85c0.84,0,1.52-0.68,1.52-1.52v-7.78c0-0.84-0.68-1.52-1.52-1.52h-3.85
					c-0.84,0-1.52,0.68-1.52,1.52v7.78C-66.39,33.75-65.71,34.43-64.88,34.43z"/>
				<path class="st3" d="M-50.75,23.62h-3.85c-0.84,0-1.52,0.68-1.52,1.52v7.78c0,0.84,0.68,1.52,1.52,1.52h3.85
					c0.84,0,1.52-0.68,1.52-1.52v-7.78C-49.23,24.3-49.91,23.62-50.75,23.62z"/>
				<path class="st3" d="M-53.92,36.31h-18.06c-0.69,0-1.25,0.56-1.25,1.25v8.69h20.56v-8.69C-52.67,36.87-53.23,36.31-53.92,36.31z
					"/>
			</g>
		</g>
	</g>
	<g id="Text">
		<g>
			<path d="M-90.13,23.08h-1.58v7.43h-4.47V8.38h6.4c4.38,0,6.96,2.72,6.96,7.37c0,3-1.1,5.22-3.06,6.39l4.16,8.38h-4.88
				L-90.13,23.08z M-91.7,18.81h1.86c1.58,0,2.43-1.08,2.43-3.07c0-2.02-0.85-3.1-2.43-3.1h-1.86V18.81z"/>
			<path d="M-71.44,26.84h-4.66l-0.72,3.67h-4.63l5.29-22.13h4.79l5.29,22.13h-4.63L-71.44,26.84z M-72.32,22.57l-0.5-2.53
				c-0.28-1.58-0.66-4.27-0.88-6.07h-0.13c-0.22,1.8-0.57,4.49-0.88,6.07l-0.5,2.53H-72.32z"/>
			<path d="M-49.98,8.38v22.13h-4.41l-3.72-8.57l-1.99-5.41l-0.09,0.09c0.35,2.78,0.57,6.92,0.57,9.39v4.49h-4.41V8.38h4.41
				l4.19,9.61c0.54,1.39,1.04,2.85,1.58,4.24l0.09-0.09c-0.38-2.78-0.63-6.58-0.63-8.63V8.38H-49.98z"/>
			<path d="M-40.43,22.13l-1.23,1.99v6.39h-4.41V8.38h4.41v8.47l1.13-2.47l3.09-6.01h5.1l-5.61,9.67l6.55,12.46h-5.04L-40.43,22.13z
				"/>
		</g>
		<g>
			<path class="st5" d="M-92.94,23.17h-1.68v7.87h-4.76V7.59h6.8c4.66,0,7.41,2.88,7.41,7.81c0,3.18-1.17,5.53-3.25,6.77l4.42,8.88
				h-5.19L-92.94,23.17z M-94.62,18.65h1.98c1.68,0,2.58-1.14,2.58-3.25c0-2.14-0.9-3.28-2.58-3.28h-1.98V18.65z"/>
			<path class="st5" d="M-73.08,27.16h-4.96l-0.77,3.89h-4.93l5.63-23.46h5.09l5.63,23.46h-4.93L-73.08,27.16z M-74.02,22.63
				l-0.54-2.68c-0.3-1.68-0.7-4.52-0.94-6.43h-0.13c-0.23,1.91-0.6,4.76-0.94,6.43l-0.54,2.68H-74.02z"/>
			<path class="st5" d="M-50.26,7.59v23.46h-4.69l-3.95-9.08l-2.11-5.73l-0.1,0.1c0.37,2.95,0.6,7.34,0.6,9.95v4.76h-4.69V7.59h4.69
				l4.46,10.19c0.57,1.47,1.11,3.02,1.68,4.49l0.1-0.1c-0.4-2.95-0.67-6.97-0.67-9.15V7.59H-50.26z"/>
			<path class="st5" d="M-40.11,22.16l-1.31,2.11v6.77h-4.69V7.59h4.69v8.98l1.21-2.61l3.28-6.37h5.43l-5.96,10.25l6.97,13.2h-5.36
				L-40.11,22.16z"/>
		</g>
	</g>
</g>
<g id="Multiplayer">
	<g id="Eye_00000018922379716005348670000002600212785667444121_">
		<path class="st8" d="M75.86,47.24l-21.62,0v-2.52c0-5.97,4.84-10.81,10.81-10.81h0c5.97,0,10.81,4.84,10.81,10.81V47.24z"/>
		<path class="st8" d="M50.52,47.24l-21.62,0v-2.52c0-5.97,4.84-10.81,10.81-10.81h0c5.97,0,10.81,4.84,10.81,10.81V47.24z"/>
		<path class="st9" d="M65.26,47.24l-25.56,0l0-2.98c0-7.06,5.72-12.78,12.78-12.78h0c7.06,0,12.78,5.72,12.78,12.78V47.24z"/>
		<path class="st0" d="M77.56,49.24H27.41c-12.14,0-21.97-9.84-21.97-21.97v-2.79c0-12.14,9.84-21.97,21.97-21.97h50.15
			c12.14,0,21.97,9.84,21.97,21.97v2.79C99.54,39.4,89.7,49.24,77.56,49.24z"/>
		<g>
			<circle class="st10" cx="39.71" cy="21.4" r="8.85"/>
			<circle class="st11" cx="39.71" cy="21.4" r="8.03"/>
		</g>
		<g>
			<circle class="st10" cx="65.05" cy="20.93" r="8.85"/>
			<circle class="st11" cx="65.05" cy="20.93" r="8.03"/>
		</g>
		<g>
			<circle class="st12" cx="52.49" cy="15.29" r="10.6"/>
			<path class="st9" d="M55.72,22c0,0.43-0.15,0.8-0.42,1.13c-0.16,0.2-0.38,0.28-0.62,0.2c-0.25-0.08-0.23-0.32-0.23-0.52
				c0.01-0.5,0.18-0.91,0.65-1.15C55.52,21.44,55.71,21.54,55.72,22L55.72,22z M44.54,8.47c-0.01-0.02-0.02-0.04-0.03-0.07
				c0.37-0.34,0.76-0.66,1.18-0.95c0.05,0.02,0.1,0.06,0.14,0.1c0.13,0.16,0.25,0.33,0.35,0.51c0.09,0.16-0.09,0.48,0.2,0.51
				c0.25,0.02,0.58,0.14,0.77-0.09c0.62-0.74,1.41-0.73,2.26-0.67c0.49,0.04,0.98-0.63,0.91-1.12c-0.03-0.21-0.23-0.2-0.34-0.1
				c-0.2,0.17-0.36,0.39-0.53,0.59c-0.42,0.49-1.74,0.53-2.18,0.07c-0.09-0.09-0.13-0.2-0.04-0.31c0.07-0.09,0.14-0.21,0.24-0.26
				c0.53-0.29,1.06-0.58,1.62-0.78c0.54-0.13,1.09-0.23,1.65-0.28c0.14,0.01,0.28,0.02,0.42,0.04c0.54,0.09,1.13,0.2,1.58,0.49
				c0.68,0.42,1.28,0.36,1.93,0.04c0.07-0.03,0.13-0.07,0.2-0.11c3.69,1.18,6.49,4.35,7.14,8.25c-0.14,0.12-0.27,0.24-0.42,0.35
				c-0.39,0.29-0.58,0.65-0.54,1.15c0.03,0.39,0.02,0.81-0.49,0.91c-0.43,0.08-0.7-0.18-0.86-0.82c-0.09-0.37-0.14-0.76-0.26-1.13
				c-0.2-0.61-0.58-1.04-1.3-0.99c-0.62,0.04-1.06-0.35-1.53-0.65c-0.2-0.13-0.46-0.33-0.61-0.07c-0.1,0.18,0.11,0.45,0.33,0.57
				c0.21,0.11,0.45,0.15,0.67,0.24c0.4,0.17,0.5,0.39,0.31,0.77c-0.31,0.63-0.85,0.98-1.51,1.16c-0.43,0.12-0.75-0.15-0.99-0.47
				c-0.44-0.6-0.85-1.22-1.27-1.83c-0.1-0.15-0.19-0.3-0.31-0.44c-0.05-0.07-0.16-0.11-0.24-0.04c-0.06,0.06-0.13,0.15-0.12,0.22
				c0.03,0.17,0.08,0.35,0.16,0.51c0.43,0.83,1.01,1.54,1.65,2.21c0.21,0.22,0.5,0.31,0.77,0.43c0.58,0.26,0.67,0.58,0.31,1.13
				c-0.28,0.43-0.66,0.77-1.07,1.07c-0.69,0.49-0.93,1.1-0.68,1.93c0.17,0.57,0.03,1.13-0.4,1.57c-0.3,0.3-0.5,0.65-0.63,1.05
				c-0.1,0.31-0.26,0.6-0.44,0.87c-0.88,1.3-2.61,1.26-3.49-0.05c-0.49-0.74-0.83-1.51-0.69-2.42c0.08-0.54-0.04-1.06-0.27-1.56
				c-0.17-0.37-0.27-0.79-0.41-1.18c-0.3-0.84-0.79-1.17-1.69-1.16c-0.27,0-0.53,0.07-0.8,0.08c-1.54,0.07-2.44-1.06-2.22-2.59
				c0.28-1.88,1.26-3.09,3.07-3.64c0.91-0.69,1.07-0.68,2.02-0.03c0.69,0.47,1.45,0.69,2.28,0.41c0.35-0.12,0.69-0.16,1.03-0.1
				c-0.34-0.19-0.59-0.56-1.01-0.58c-0.54-0.02-1.07-0.33-1.6,0.13c-0.2,0.18-0.57,0.1-0.73-0.13c-0.43-0.62-0.9-0.39-1.39-0.13
				c-0.26,0.14-0.53,0.25-0.83,0.26c-0.24,0-0.48,0.01-0.71-0.01c-0.43-0.04-0.64-0.25-0.63-0.59c0.02-0.41,0.31-0.79,0.66-0.83
				c0.18-0.02,0.36,0.02,0.53,0c0.18-0.02,0.22-0.17,0.21-0.33c0-0.18-0.07-0.26-0.27-0.22c-0.2,0.04-0.51,0.08-0.57-0.11
				C44.96,8.92,44.71,8.73,44.54,8.47L44.54,8.47z"/>
			<circle class="st13" cx="52.49" cy="15.29" r="11.67"/>
			<circle class="st14" cx="52.49" cy="15.29" r="10.6"/>
		</g>
	</g>
	<g id="Text_00000022529494834786738170000010311321551050887852_">
		<g>
			<path d="M15.78,16.81v14.06h-2.79v-3.45c0.08-1.71,0.14-3.41,0.22-5.12l-0.1-0.04l-1.26,3.69l-0.7,1.91H8.33l-0.7-1.91
				l-1.27-3.69l-0.1,0.04c0.06,1.71,0.14,3.41,0.2,5.12v3.45H3.69V16.81h2.87l2.21,5.32c0.28,0.7,0.76,1.93,0.92,2.45h0.08
				c0.16-0.52,0.64-1.75,0.92-2.45l2.21-5.32H15.78z"/>
			<path d="M18.03,26.35v-9.54H21v9.54c0,1.29,0.5,1.99,1.51,1.99s1.51-0.7,1.51-1.99v-9.54h2.97v9.54c0,2.97-1.67,4.76-4.48,4.76
				C19.69,31.11,18.03,29.32,18.03,26.35z"/>
			<path d="M36.26,28.16v2.71h-7.03V16.81h2.85v11.35H36.26z"/>
			<path d="M43.42,19.52h-2.75v11.35h-2.93V19.52h-2.75v-2.71h8.43V19.52z"/>
			<path d="M47.62,16.81v14.06h-2.85V16.81H47.62z"/>
			<path d="M58.82,21.59c0,2.99-1.73,4.76-4.64,4.76h-1.23v4.52h-2.85V16.81h4.08C57.1,16.81,58.82,18.58,58.82,21.59z M55.89,21.59
				c0-1.37-0.6-2.07-1.75-2.07h-1.19v4.12h1.19C55.29,23.64,55.89,22.93,55.89,21.59z"/>
			<path d="M67.42,28.16v2.71h-7.03V16.81h2.85v11.35H67.42z"/>
			<path d="M73.98,28.54h-2.97l-0.46,2.33h-2.95l3.37-14.06h3.05l3.37,14.06h-2.95L73.98,28.54z M73.42,25.83l-0.32-1.61
				c-0.18-1-0.42-2.71-0.56-3.86h-0.08c-0.14,1.14-0.36,2.85-0.56,3.86l-0.32,1.61H73.42z"/>
			<path d="M79.9,26.69l-3.31-9.88h2.95l1.15,3.9c0.14,0.46,0.46,1.57,0.6,2.25h0.08c0.16-0.68,0.48-1.79,0.64-2.31l1.1-3.83h2.95
				l-3.31,9.88v4.18H79.9V26.69z"/>
			<path d="M94.76,28.16v2.71h-7.45V16.81h7.25v2.71h-4.4v2.91h4v2.61h-4v3.11H94.76z"/>
			<path d="M100.56,26.15h-1v4.72H96.7V16.81h4.08c2.79,0,4.44,1.73,4.44,4.68c0,1.91-0.7,3.31-1.95,4.06l2.65,5.32h-3.11
				L100.56,26.15z M99.56,23.44h1.18c1,0,1.55-0.68,1.55-1.95c0-1.29-0.54-1.97-1.55-1.97h-1.18V23.44z"/>
		</g>
		<g>
			<g>
				<path d="M14.32,16.65v14.57h-2.89v-3.58c0.08-1.77,0.15-3.54,0.23-5.31l-0.1-0.04l-1.31,3.83L9.51,28.1H6.6l-0.73-1.98
					l-1.31-3.83l-0.1,0.04c0.06,1.77,0.15,3.54,0.21,5.31v3.58H1.79V16.65h2.98l2.29,5.52c0.29,0.73,0.79,2,0.96,2.54H8.1
					c0.17-0.54,0.67-1.81,0.96-2.54l2.29-5.52H14.32z"/>
				<path d="M16.65,26.54v-9.89h3.08v9.89c0,1.33,0.52,2.06,1.56,2.06c1.04,0,1.56-0.73,1.56-2.06v-9.89h3.08v9.89
					c0,3.08-1.73,4.93-4.64,4.93C18.38,31.47,16.65,29.62,16.65,26.54z"/>
				<path d="M35.54,28.41v2.81h-7.28V16.65h2.96v11.76H35.54z"/>
				<path d="M42.97,19.46h-2.85v11.76h-3.04V19.46h-2.85v-2.81h8.74V19.46z"/>
				<path d="M47.32,16.65v14.57h-2.96V16.65H47.32z"/>
				<path d="M58.93,21.61c0,3.1-1.79,4.93-4.81,4.93h-1.27v4.68H49.9V16.65h4.23C57.14,16.65,58.93,18.48,58.93,21.61z M55.9,21.61
					c0-1.42-0.62-2.14-1.81-2.14h-1.23v4.27h1.23C55.27,23.73,55.9,23,55.9,21.61z"/>
				<path d="M67.84,28.41v2.81h-7.28V16.65h2.96v11.76H67.84z"/>
				<path d="M74.64,28.81h-3.08l-0.48,2.41h-3.06l3.5-14.57h3.16l3.5,14.57h-3.06L74.64,28.81z M74.06,26l-0.33-1.67
					c-0.19-1.04-0.44-2.81-0.58-4h-0.08c-0.15,1.19-0.37,2.96-0.58,4L72.15,26H74.06z"/>
				<path d="M80.78,26.89l-3.43-10.24h3.06l1.19,4.04c0.15,0.48,0.48,1.62,0.62,2.33h0.08c0.17-0.71,0.5-1.85,0.67-2.39l1.14-3.98
					h3.06l-3.43,10.24v4.33h-2.96V26.89z"/>
				<path d="M96.18,28.41v2.81h-7.72V16.65h7.51v2.81h-4.56v3.02h4.14v2.71h-4.14v3.23H96.18z"/>
				<path d="M102.19,26.33h-1.04v4.89H98.2V16.65h4.23c2.89,0,4.6,1.79,4.6,4.85c0,1.98-0.73,3.43-2.02,4.2l2.75,5.52h-3.23
					L102.19,26.33z M101.15,23.52h1.23c1.04,0,1.6-0.71,1.6-2.02c0-1.33-0.56-2.04-1.6-2.04h-1.23V23.52z"/>
			</g>
			<g>
				<path class="st5" d="M14.32,16.65v14.57h-2.89v-3.58c0.08-1.77,0.15-3.54,0.23-5.31l-0.1-0.04l-1.31,3.83L9.51,28.1H6.6
					l-0.73-1.98l-1.31-3.83l-0.1,0.04c0.06,1.77,0.15,3.54,0.21,5.31v3.58H1.79V16.65h2.98l2.29,5.52c0.29,0.73,0.79,2,0.96,2.54
					H8.1c0.17-0.54,0.67-1.81,0.96-2.54l2.29-5.52H14.32z"/>
				<path class="st5" d="M16.65,26.54v-9.89h3.08v9.89c0,1.33,0.52,2.06,1.56,2.06c1.04,0,1.56-0.73,1.56-2.06v-9.89h3.08v9.89
					c0,3.08-1.73,4.93-4.64,4.93C18.38,31.47,16.65,29.62,16.65,26.54z"/>
				<path class="st5" d="M35.54,28.41v2.81h-7.28V16.65h2.96v11.76H35.54z"/>
				<path class="st5" d="M42.97,19.46h-2.85v11.76h-3.04V19.46h-2.85v-2.81h8.74V19.46z"/>
				<path class="st5" d="M47.32,16.65v14.57h-2.96V16.65H47.32z"/>
				<path class="st5" d="M58.93,21.61c0,3.1-1.79,4.93-4.81,4.93h-1.27v4.68H49.9V16.65h4.23C57.14,16.65,58.93,18.48,58.93,21.61z
					 M55.9,21.61c0-1.42-0.62-2.14-1.81-2.14h-1.23v4.27h1.23C55.27,23.73,55.9,23,55.9,21.61z"/>
				<path class="st5" d="M67.84,28.41v2.81h-7.28V16.65h2.96v11.76H67.84z"/>
				<path class="st5" d="M74.64,28.81h-3.08l-0.48,2.41h-3.06l3.5-14.57h3.16l3.5,14.57h-3.06L74.64,28.81z M74.06,26l-0.33-1.67
					c-0.19-1.04-0.44-2.81-0.58-4h-0.08c-0.15,1.19-0.37,2.96-0.58,4L72.15,26H74.06z"/>
				<path class="st5" d="M80.78,26.89l-3.43-10.24h3.06l1.19,4.04c0.15,0.48,0.48,1.62,0.62,2.33h0.08c0.17-0.71,0.5-1.85,0.67-2.39
					l1.14-3.98h3.06l-3.43,10.24v4.33h-2.96V26.89z"/>
				<path class="st5" d="M96.18,28.41v2.81h-7.72V16.65h7.51v2.81h-4.56v3.02h4.14v2.71h-4.14v3.23H96.18z"/>
				<path class="st5" d="M102.19,26.33h-1.04v4.89H98.2V16.65h4.23c2.89,0,4.6,1.79,4.6,4.85c0,1.98-0.73,3.43-2.02,4.2l2.75,5.52
					h-3.23L102.19,26.33z M101.15,23.52h1.23c1.04,0,1.6-0.71,1.6-2.02c0-1.33-0.56-2.04-1.6-2.04h-1.23V23.52z"/>
			</g>
		</g>
	</g>
</g>
<g>
</g>
<g>
</g>
<g>
</g>
<g>
</g>
<g>
</g>
<g>
</g>
</svg>
