<?xml version="1.0" encoding="iso-8859-1"?>
<!-- Generator: Adobe Illustrator 28.3.0, SVG Export Plug-In . SVG Version: 6.00 Build 0)  -->
<svg version="1.1" xmlns="http://www.w3.org/2000/svg" xmlns:xlink="http://www.w3.org/1999/xlink" x="0px" y="0px"
	 viewBox="0 0 48.124 43.481" style="enable-background:new 0 0 48.124 43.481;" xml:space="preserve">
<g id="Blind_shot">
	<g id="Blind-shot">
		<g id="face">
			<path style="fill:#120B17;stroke:#000000;stroke-width:2;stroke-miterlimit:10;" d="M40.531,18.569l0.693-0.915
				c0.451-0.595,1.298-0.713,1.894-0.262l3.47,2.626c0.595,0.451,0.713,1.298,0.262,1.894l-0.693,0.915
				c-0.451,0.595-1.298,0.713-1.894,0.262l-3.47-2.626C40.198,20.013,40.081,19.165,40.531,18.569z"/>
			<path style="fill:#120B17;stroke:#000000;stroke-width:2;stroke-miterlimit:10;" d="M41.179,16.746l-1.032-0.911
				c-0.56-0.494-0.613-1.348-0.119-1.908l2.88-3.263c0.494-0.56,1.348-0.613,1.908-0.119l1.032,0.911
				c0.56,0.494,0.613,1.348,0.119,1.908l-2.88,3.263C42.593,17.186,41.739,17.24,41.179,16.746z"/>
			<circle style="fill:#FFD294;stroke:#000000;stroke-width:2;stroke-miterlimit:10;" cx="21.741" cy="21.741" r="20.741"/>
			<path style="fill:none;stroke:#000000;stroke-width:2;stroke-miterlimit:10;" d="M22.562,24.94h-2.333
				c-0.222,0-0.403-0.18-0.403-0.403l0,0c0-0.222,0.18-0.403,0.403-0.403h2.333c0.222,0,0.403,0.18,0.403,0.403l0,0
				C22.965,24.759,22.784,24.94,22.562,24.94z"/>
			<path style="fill:none;stroke:#000000;stroke-width:2;stroke-miterlimit:10;" d="M14.763,35.993c0,0,1.092-5.899,6.606-5.899
				s6.659,5.946,6.659,5.946"/>
		</g>
		<path style="fill:#120B17;stroke:#000000;stroke-width:2;stroke-miterlimit:10;" d="M39.458,23.754H4.024
			C2.354,23.754,1,22.401,1,20.731v-5.211c0-1.67,1.354-3.024,3.024-3.024h35.434c1.67,0,3.024,1.354,3.024,3.024v5.211
			C42.481,22.401,41.128,23.754,39.458,23.754z"/>
	</g>
</g>
<g id="Layer_1">
</g>
</svg>
