<?xml version="1.0" encoding="iso-8859-1"?>
<!-- Generator: Adobe Illustrator 28.3.0, SVG Export Plug-In . SVG Version: 6.00 Build 0)  -->
<svg version="1.1" xmlns="http://www.w3.org/2000/svg" xmlns:xlink="http://www.w3.org/1999/xlink" x="0px" y="0px"
	 viewBox="0 0 42.695 49.593" style="enable-background:new 0 0 42.695 49.593;" xml:space="preserve">
<g id="Double_ace">
	<g id="Double_ace_00000034788441429312326600000015641523636166389634_">
		<g>
			<path style="fill:#FFFFFF;stroke:#000000;stroke-width:2;stroke-miterlimit:10;" d="M29.506,47.74H3.478
				C2.109,47.74,1,46.63,1,45.262V5.764c0-1.368,1.109-2.478,2.478-2.478h26.029c1.368,0,2.478,1.109,2.478,2.478v39.498
				C31.984,46.63,30.875,47.74,29.506,47.74z"/>
			<g>
				<path style="fill:#EE3133;" d="M7.594,13.68H5.672l-0.299,1.506H3.464l2.182-9.09h1.974l2.182,9.09H7.892L7.594,13.68z
					 M7.23,11.927l-0.208-1.039c-0.117-0.649-0.272-1.753-0.363-2.493H6.606c-0.091,0.74-0.233,1.844-0.363,2.493l-0.208,1.039H7.23
					z"/>
			</g>
		</g>
		<g>
			<path style="fill:#FFFFFF;stroke:#000000;stroke-width:2;stroke-miterlimit:10;" d="M33.577,48.57L7.785,45.073
				c-1.356-0.184-2.306-1.432-2.122-2.788l5.307-39.14c0.184-1.356,1.432-2.306,2.788-2.122L39.55,4.52
				c1.356,0.184,2.306,1.432,2.122,2.788l-5.307,39.14C36.182,47.804,34.933,48.754,33.577,48.57z"/>
			<g>
				<path d="M16.451,11.828l-1.904-0.258l-0.499,1.452l-1.892-0.256l3.383-8.715l1.956,0.266l0.94,9.301l-1.892-0.257L16.451,11.828
					z M16.326,10.043L16.26,8.985c-0.029-0.659-0.035-1.773-0.025-2.52l-0.052-0.008c-0.189,0.722-0.479,1.797-0.695,2.422
					l-0.346,1.002L16.326,10.043z"/>
			</g>
			<g>
				<path d="M32.436,44.308l-1.904-0.258l-0.498,1.452l-1.892-0.256l3.383-8.715l1.956,0.266l0.94,9.301l-1.892-0.257L32.436,44.308
					z M32.311,42.523l-0.066-1.058c-0.028-0.659-0.034-1.773-0.024-2.52l-0.052-0.008c-0.189,0.722-0.479,1.797-0.695,2.422
					l-0.346,1.002L32.311,42.523z"/>
			</g>
		</g>
	</g>
	<path style="stroke:#000000;stroke-miterlimit:10;" d="M31.018,22.946c-1.571-3.451-5.112-11.088-5.112-11.088
		s-5.237,6.248-7.881,9.327c-1.632,1.9-2.713,3.408-2.931,4.751c-0.185,1.136,0.114,2.341,0.958,3.124
		c2.25,2.088,5.386-1.318,6.486-0.234c0.942,0.929-1.04,3.61-2.16,4.969c-0.295,0.358-0.076,0.895,0.383,0.958l2.005,0.272
		l2.005,0.272c0.459,0.062,0.813-0.398,0.624-0.821c-0.718-1.609-1.914-4.721-0.759-5.365c1.349-0.752,3.464,3.366,6.189,1.952
		c1.022-0.53,1.631-1.612,1.755-2.757C32.726,26.953,32.056,25.225,31.018,22.946z"/>
</g>
<g id="Layer_1">
</g>
</svg>
