<?xml version="1.0" encoding="iso-8859-1"?>
<!-- Generator: Adobe Illustrator 28.3.0, SVG Export Plug-In . SVG Version: 6.00 Build 0)  -->
<svg version="1.1" xmlns="http://www.w3.org/2000/svg" xmlns:xlink="http://www.w3.org/1999/xlink" x="0px" y="0px"
	 viewBox="0 0 38.085 42.806" style="enable-background:new 0 0 38.085 42.806;" xml:space="preserve">
<g id="Feedbacker">
	<g id="Feedbacker_00000031913675180063907580000013019491866877673918_">
		<g>
			<path style="fill:#FFDA28;stroke:#000000;stroke-width:2;stroke-miterlimit:10;" d="M29.635,19.825
				c0-6.275-5.438-11.281-11.859-10.561c-4.668,0.524-8.533,4.192-9.264,8.832c-0.757,4.804,1.709,9.12,5.567,11.143v2.9
				c0,0.767,0.622,1.389,1.389,1.389h7.111c0.767,0,1.389-0.622,1.389-1.389v-2.918C27.337,27.438,29.635,23.902,29.635,19.825z"/>
			<path style="stroke:#000000;stroke-width:2;stroke-miterlimit:10;" d="M22.215,38.102h-6.419c-0.522,0-0.944-0.423-0.944-0.944v0
				c0-0.522,0.423-0.944,0.944-0.944h6.419c0.522,0,0.944,0.423,0.944,0.944v0C23.159,37.679,22.736,38.102,22.215,38.102z"/>
			<path style="stroke:#000000;stroke-miterlimit:10;" d="M21.237,42.306h-4.464c-0.522,0-0.944-0.423-0.944-0.944v0
				c0-0.522,0.423-0.944,0.944-0.944h4.464c0.522,0,0.944,0.423,0.944,0.944v0C22.182,41.883,21.759,42.306,21.237,42.306z"/>
		</g>
		<path style="stroke:#000000;stroke-miterlimit:10;" d="M18.061,5.908V1.444c0-0.522,0.423-0.944,0.944-0.944h0
			c0.522,0,0.944,0.423,0.944,0.944v4.464c0,0.522-0.423,0.944-0.944,0.944h0C18.484,6.853,18.061,6.43,18.061,5.908z"/>
		<path style="stroke:#000000;stroke-miterlimit:10;" d="M10.003,9.164L7.379,5.553C7.073,5.131,7.166,4.54,7.588,4.234l0,0
			C8.01,3.927,8.601,4.021,8.908,4.443l2.624,3.611c0.307,0.422,0.213,1.013-0.209,1.319l0,0C10.9,9.68,10.31,9.586,10.003,9.164z"
			/>
		<path style="stroke:#000000;stroke-miterlimit:10;" d="M5.398,16.534l-4.245-1.379c-0.496-0.161-0.768-0.694-0.606-1.19l0,0
			c0.161-0.496,0.694-0.768,1.19-0.606l4.245,1.379c0.496,0.161,0.768,0.694,0.606,1.19l0,0C6.427,16.424,5.894,16.696,5.398,16.534
			z"/>
		<path style="stroke:#000000;stroke-miterlimit:10;" d="M6.005,25.204l-4.245,1.379c-0.496,0.161-1.029-0.11-1.19-0.606l0,0
			c-0.161-0.496,0.11-1.029,0.606-1.19l4.245-1.379c0.496-0.161,1.029,0.11,1.19,0.606l0,0C6.772,24.51,6.501,25.043,6.005,25.204z"
			/>
		<path style="stroke:#000000;stroke-miterlimit:10;" d="M11.591,31.861l-2.624,3.611c-0.307,0.422-0.897,0.516-1.319,0.209h0
			c-0.422-0.307-0.516-0.897-0.209-1.319l2.624-3.611c0.307-0.422,0.897-0.516,1.319-0.209h0
			C11.804,30.848,11.898,31.439,11.591,31.861z"/>
		<path style="stroke:#000000;stroke-miterlimit:10;" d="M28.081,30.707l2.624,3.611c0.307,0.422,0.213,1.013-0.209,1.319l0,0
			c-0.422,0.307-1.013,0.213-1.319-0.209l-2.624-3.611c-0.307-0.422-0.213-1.013,0.209-1.319l0,0
			C27.184,30.192,27.775,30.285,28.081,30.707z"/>
		<path style="stroke:#000000;stroke-miterlimit:10;" d="M32.686,23.337l4.245,1.379c0.496,0.161,0.768,0.694,0.606,1.19v0
			c-0.161,0.496-0.694,0.768-1.19,0.606l-4.245-1.379c-0.496-0.161-0.768-0.694-0.606-1.19l0,0
			C31.658,23.447,32.19,23.176,32.686,23.337z"/>
		<path style="stroke:#000000;stroke-miterlimit:10;" d="M32.08,14.668l4.245-1.379c0.496-0.161,1.029,0.11,1.19,0.606v0
			c0.161,0.496-0.11,1.029-0.606,1.19l-4.245,1.379c-0.496,0.161-1.029-0.11-1.19-0.606v0C31.312,15.362,31.584,14.829,32.08,14.668
			z"/>
		<path style="stroke:#000000;stroke-miterlimit:10;" d="M26.493,8.01l2.624-3.611c0.307-0.422,0.897-0.516,1.319-0.209l0,0
			c0.422,0.307,0.516,0.897,0.209,1.319l-2.624,3.611c-0.307,0.422-0.897,0.516-1.319,0.209v0C26.28,9.023,26.187,8.432,26.493,8.01
			z"/>
		<path style="fill:#FFDA28;stroke:#FFFFFF;stroke-width:2;stroke-miterlimit:10;" d="M12.968,18.825c0,0-0.353-3.949,2.861-3.949"
			/>
	</g>
</g>
<g id="Layer_1">
</g>
</svg>
