<?xml version="1.0" encoding="iso-8859-1"?>
<!-- Generator: Adobe Illustrator 28.3.0, SVG Export Plug-In . SVG Version: 6.00 Build 0)  -->
<svg version="1.1" xmlns="http://www.w3.org/2000/svg" xmlns:xlink="http://www.w3.org/1999/xlink" x="0px" y="0px"
	 viewBox="0 0 37.891 48.329" style="enable-background:new 0 0 37.891 48.329;" xml:space="preserve">
<g id="Friends">
	<g id="Friends_00000167356947976852702950000003370626983941803696_">
		<g id="First_guess_00000043415945871635340430000010539630899979292080_">
			
				<ellipse style="fill:#FFD294;stroke:#000000;stroke-width:2;stroke-miterlimit:10;" cx="4.534" cy="24.899" rx="3.534" ry="20.741"/>
			<g>
				<g>
					<path d="M5.779,9.709C5.715,9.14,5.714,8.564,5.743,7.993C5.757,7.709,5.78,7.426,5.81,7.144
						c0.014-0.133,0.03-0.266,0.046-0.399C5.86,6.713,5.908,6.349,5.879,6.566c0.165-1.222,0.32-2.458,0.618-3.656
						c0.029-0.116,0.059-0.232,0.093-0.347c0.015-0.052,0.166-0.466,0.072-0.256c0.018-0.041,0.148-0.237,0.14-0.253
						C6.7,2.155,6.599,2.255,6.497,2.356c-1.18-0.624-1.624-0.699-1.332-0.228c-0.139-0.239-0.04-0.112-0.014-0.012
						c0.021,0.077,0.044,0.154,0.063,0.232c0.051,0.208,0.087,0.419,0.121,0.631c0.013,0.089,0.012,0.072-0.005-0.051
						c0.008,0.059,0.015,0.119,0.022,0.178C5.37,3.251,5.385,3.397,5.397,3.542C5.421,3.81,5.438,4.078,5.45,4.346
						c0.027,0.607,0.024,1.215-0.009,1.822c-0.035,0.654,0.6,1.279,1.25,1.25c0.708-0.032,1.212-0.549,1.25-1.25
						c0.076-1.399,0.014-2.838-0.257-4.215C7.557,1.307,7.325,0.589,6.735,0.221C5.92-0.287,5.017,0.138,4.573,0.908
						c-0.349,0.605-0.5,1.335-0.636,2.014c-0.151,0.752-0.263,1.511-0.37,2.271c-0.211,1.49-0.457,3.009-0.288,4.517
						c0.073,0.648,0.523,1.283,1.25,1.25C5.143,10.931,5.857,10.405,5.779,9.709L5.779,9.709z"/>
				</g>
			</g>
			<path style="fill:none;stroke:#000000;stroke-width:2;stroke-miterlimit:10;" d="M5.425,23.366c0,0,0.098-3.472,0.592-3.472
				s0.596,3.5,0.596,3.5"/>
			<path style="fill:none;stroke:#000000;stroke-width:2;stroke-miterlimit:10;" d="M2.374,23.366c0,0,0.098-3.472,0.592-3.472
				s0.596,3.5,0.596,3.5"/>
			<path style="fill:none;stroke:#000000;stroke-width:2;stroke-miterlimit:10;" d="M4.476,28.098L4.476,28.098
				c-0.148,0-0.267-0.12-0.267-0.267V27.56c0-0.148,0.12-0.267,0.267-0.267h0c0.148,0,0.267,0.12,0.267,0.267v0.271
				C4.743,27.978,4.623,28.098,4.476,28.098z"/>
			<path style="fill:none;stroke:#000000;stroke-width:2;stroke-miterlimit:10;" d="M6.736,27.4c0,0-0.372,11.797-2.251,11.797
				S2.215,27.306,2.215,27.306"/>
		</g>
		<g id="First_guess_00000069388728971686566860000009100807134289261465_">
			
				<ellipse style="fill:#FFD294;stroke:#000000;stroke-width:2;stroke-miterlimit:10;" cx="13.94" cy="25.364" rx="3.534" ry="20.741"/>
			<g>
				<g>
					<path d="M15.184,10.174C15.12,9.605,15.12,9.03,15.148,8.458c0.014-0.284,0.038-0.567,0.067-0.849
						c0.014-0.133,0.03-0.266,0.046-0.399c0.004-0.031,0.052-0.395,0.023-0.178c0.165-1.222,0.32-2.458,0.618-3.656
						c0.029-0.116,0.059-0.232,0.093-0.347c0.015-0.052,0.166-0.466,0.072-0.256c0.018-0.041,0.148-0.237,0.14-0.253
						c-0.102,0.1-0.204,0.201-0.305,0.301c-1.18-0.624-1.624-0.699-1.332-0.228c-0.139-0.239-0.04-0.112-0.014-0.012
						c0.021,0.077,0.044,0.154,0.063,0.232c0.051,0.208,0.087,0.419,0.121,0.631c0.013,0.089,0.012,0.072-0.005-0.051
						c0.008,0.059,0.015,0.119,0.022,0.178c0.017,0.145,0.032,0.291,0.045,0.437c0.024,0.267,0.041,0.535,0.053,0.804
						c0.027,0.607,0.024,1.215-0.009,1.822c-0.035,0.654,0.6,1.279,1.25,1.25c0.708-0.032,1.212-0.549,1.25-1.25
						c0.076-1.399,0.014-2.838-0.257-4.215c-0.127-0.646-0.359-1.365-0.949-1.732c-0.816-0.508-1.719-0.083-2.162,0.687
						c-0.349,0.605-0.5,1.335-0.636,2.014c-0.151,0.752-0.263,1.511-0.37,2.271c-0.211,1.49-0.457,3.009-0.288,4.517
						c0.073,0.648,0.523,1.283,1.25,1.25C14.549,11.397,15.262,10.87,15.184,10.174L15.184,10.174z"/>
				</g>
			</g>
			<path style="fill:none;stroke:#000000;stroke-width:2;stroke-miterlimit:10;" d="M14.831,23.831c0,0,0.098-3.472,0.592-3.472
				c0.494,0,0.596,3.5,0.596,3.5"/>
			<path style="fill:none;stroke:#000000;stroke-width:2;stroke-miterlimit:10;" d="M11.78,23.831c0,0,0.098-3.472,0.592-3.472
				c0.494,0,0.596,3.5,0.596,3.5"/>
			<path style="fill:none;stroke:#000000;stroke-width:2;stroke-miterlimit:10;" d="M13.881,28.563L13.881,28.563
				c-0.148,0-0.267-0.12-0.267-0.267v-0.271c0-0.148,0.12-0.267,0.267-0.267h0c0.148,0,0.267,0.12,0.267,0.267v0.271
				C14.149,28.443,14.029,28.563,13.881,28.563z"/>
			<path style="fill:none;stroke:#000000;stroke-width:2;stroke-miterlimit:10;" d="M16.142,27.865c0,0-0.372,11.797-2.251,11.797
				s-2.269-11.892-2.269-11.892"/>
		</g>
		<g id="First_guess_00000140002499234724965240000009483791847663172799_">
			
				<ellipse style="fill:#FFD294;stroke:#000000;stroke-width:2;stroke-miterlimit:10;" cx="23.95" cy="26.123" rx="3.534" ry="20.741"/>
			<g>
				<g>
					<path d="M25.195,10.934c-0.064-0.569-0.065-1.144-0.036-1.716c0.014-0.284,0.038-0.567,0.067-0.849
						c0.014-0.133,0.03-0.266,0.046-0.399c0.004-0.031,0.052-0.395,0.023-0.178c0.165-1.222,0.32-2.458,0.618-3.656
						c0.029-0.116,0.059-0.232,0.093-0.347c0.015-0.052,0.166-0.466,0.072-0.256c0.018-0.041,0.148-0.237,0.14-0.253
						c-0.102,0.1-0.204,0.201-0.305,0.301c-1.18-0.624-1.624-0.699-1.332-0.228c-0.139-0.239-0.04-0.112-0.014-0.012
						c0.021,0.077,0.044,0.154,0.063,0.232c0.051,0.208,0.087,0.419,0.121,0.631c0.013,0.089,0.012,0.072-0.005-0.051
						c0.008,0.059,0.015,0.119,0.022,0.178c0.017,0.145,0.032,0.291,0.045,0.437c0.024,0.267,0.041,0.535,0.053,0.804
						c0.027,0.607,0.024,1.215-0.009,1.822c-0.035,0.654,0.6,1.279,1.25,1.25c0.708-0.032,1.212-0.549,1.25-1.25
						c0.076-1.399,0.014-2.838-0.257-4.215c-0.127-0.646-0.359-1.365-0.949-1.732c-0.816-0.508-1.719-0.083-2.162,0.687
						c-0.349,0.605-0.5,1.335-0.636,2.014c-0.151,0.752-0.263,1.511-0.37,2.271c-0.211,1.49-0.457,3.009-0.288,4.517
						c0.073,0.648,0.523,1.283,1.25,1.25C24.559,12.156,25.273,11.63,25.195,10.934L25.195,10.934z"/>
				</g>
			</g>
			<path style="fill:none;stroke:#000000;stroke-width:2;stroke-miterlimit:10;" d="M24.841,24.591c0,0,0.098-3.472,0.592-3.472
				c0.494,0,0.596,3.5,0.596,3.5"/>
			<path style="fill:none;stroke:#000000;stroke-width:2;stroke-miterlimit:10;" d="M21.79,24.591c0,0,0.098-3.472,0.592-3.472
				s0.596,3.5,0.596,3.5"/>
			<path style="fill:none;stroke:#000000;stroke-width:2;stroke-miterlimit:10;" d="M23.892,29.322L23.892,29.322
				c-0.148,0-0.267-0.12-0.267-0.267v-0.271c0-0.148,0.12-0.267,0.267-0.267h0c0.148,0,0.267,0.12,0.267,0.267v0.271
				C24.159,29.203,24.039,29.322,23.892,29.322z"/>
			<path style="fill:none;stroke:#000000;stroke-width:2;stroke-miterlimit:10;" d="M26.152,28.625c0,0-0.372,11.797-2.251,11.797
				c-1.879,0-2.269-11.892-2.269-11.892"/>
		</g>
		<g id="First_guess_00000106132198469488451960000011996596652272254382_">
			
				<ellipse style="fill:#FFD294;stroke:#000000;stroke-width:2;stroke-miterlimit:10;" cx="33.356" cy="26.589" rx="3.534" ry="20.741"/>
			<g>
				<g>
					<path d="M34.6,11.399c-0.064-0.569-0.065-1.144-0.036-1.716c0.014-0.284,0.038-0.567,0.067-0.849
						c0.014-0.133,0.03-0.266,0.046-0.399c0.004-0.031,0.052-0.395,0.023-0.178c0.165-1.222,0.32-2.458,0.618-3.656
						c0.029-0.116,0.059-0.232,0.093-0.347c0.015-0.052,0.166-0.466,0.072-0.256c0.018-0.041,0.148-0.237,0.14-0.253
						c-0.102,0.1-0.204,0.201-0.305,0.301c-1.18-0.624-1.624-0.699-1.332-0.228c-0.139-0.239-0.04-0.112-0.014-0.012
						c0.021,0.077,0.044,0.154,0.063,0.232c0.051,0.208,0.087,0.419,0.121,0.631c0.013,0.089,0.012,0.072-0.005-0.051
						c0.008,0.059,0.015,0.119,0.022,0.178c0.017,0.145,0.032,0.291,0.045,0.437c0.024,0.267,0.041,0.535,0.053,0.804
						c0.027,0.607,0.024,1.215-0.009,1.822c-0.035,0.654,0.6,1.279,1.25,1.25c0.708-0.032,1.212-0.549,1.25-1.25
						c0.076-1.399,0.014-2.838-0.257-4.215c-0.127-0.646-0.359-1.365-0.949-1.732c-0.816-0.508-1.719-0.083-2.162,0.687
						c-0.349,0.605-0.5,1.335-0.636,2.014c-0.151,0.752-0.263,1.511-0.37,2.271c-0.211,1.49-0.457,3.009-0.288,4.517
						c0.073,0.648,0.523,1.283,1.25,1.25C33.965,12.621,34.678,12.095,34.6,11.399L34.6,11.399z"/>
				</g>
			</g>
			<path style="fill:none;stroke:#000000;stroke-width:2;stroke-miterlimit:10;" d="M34.247,25.056c0,0,0.098-3.472,0.592-3.472
				s0.596,3.5,0.596,3.5"/>
			<path style="fill:none;stroke:#000000;stroke-width:2;stroke-miterlimit:10;" d="M31.196,25.056c0,0,0.098-3.472,0.592-3.472
				s0.596,3.5,0.596,3.5"/>
			<path style="fill:none;stroke:#000000;stroke-width:2;stroke-miterlimit:10;" d="M33.297,29.788L33.297,29.788
				c-0.148,0-0.267-0.12-0.267-0.267v-0.271c0-0.148,0.12-0.267,0.267-0.267l0,0c0.148,0,0.267,0.12,0.267,0.267v0.271
				C33.565,29.668,33.445,29.788,33.297,29.788z"/>
			<path style="fill:none;stroke:#000000;stroke-width:2;stroke-miterlimit:10;" d="M35.558,29.09c0,0-0.372,11.797-2.251,11.797
				c-1.879,0-2.269-11.892-2.269-11.892"/>
		</g>
		<g>
			<path style="fill:#FFFFFF;stroke:#000000;stroke-width:0.25;stroke-miterlimit:10;" d="M9.147,12.337L8.173,6.436h0.868
				l0.336,2.327c0.042,0.276,0.136,0.936,0.177,1.343h0.023C9.626,9.699,9.72,9.039,9.767,8.727l0.325-2.291h0.868l-0.974,5.901
				v2.495H9.147V12.337z"/>
			<path style="fill:#FFFFFF;stroke:#000000;stroke-width:0.25;stroke-miterlimit:10;" d="M11.206,12.109v-2.95
				c0-1.799,0.502-2.866,1.34-2.866c0.839,0,1.341,1.067,1.341,2.866v2.95c0,1.799-0.502,2.867-1.341,2.867
				C11.708,14.976,11.206,13.909,11.206,12.109z M13.019,12.109v-2.95c0-0.792-0.16-1.211-0.473-1.211s-0.472,0.42-0.472,1.211v2.95
				c0,0.792,0.159,1.211,0.472,1.211S13.019,12.901,13.019,12.109z"/>
			<path style="fill:#FFFFFF;stroke:#000000;stroke-width:0.25;stroke-miterlimit:10;" d="M14.428,12.133V6.436h0.874v5.697
				c0,0.768,0.147,1.188,0.443,1.188c0.295,0,0.443-0.42,0.443-1.188V6.436h0.874v5.697c0,1.775-0.49,2.843-1.317,2.843
				C14.918,14.976,14.428,13.909,14.428,12.133z"/>
			<path style="fill:#FFFFFF;stroke:#000000;stroke-width:0.25;stroke-miterlimit:10;" d="M21.441,6.436v8.396h-0.844v-3.418h-0.851
				v3.418h-0.844V6.436h0.844v3.358h0.851V6.436H21.441z"/>
			<path style="fill:#FFFFFF;stroke:#000000;stroke-width:0.25;stroke-miterlimit:10;" d="M23.7,13.441h-0.874l-0.136,1.391h-0.868
				l0.992-8.396h0.897l0.992,8.396h-0.868L23.7,13.441z M23.534,11.822l-0.094-0.959c-0.053-0.6-0.124-1.619-0.166-2.303h-0.023
				c-0.042,0.684-0.106,1.703-0.166,2.303l-0.094,0.959H23.534z"/>
			<path style="fill:#FFFFFF;stroke:#000000;stroke-width:0.25;stroke-miterlimit:10;" d="M24.536,6.436h0.868l0.372,3.97
				c0.059,0.612,0.13,1.644,0.171,2.339h0.023c0.042-0.695,0.112-1.727,0.171-2.339l0.372-3.97h0.868l-0.98,8.396h-0.886
				L24.536,6.436z"/>
			<path style="fill:#FFFFFF;stroke:#000000;stroke-width:0.25;stroke-miterlimit:10;" d="M29.956,13.213v1.619h-2.191V6.436h2.132
				v1.619h-1.293v1.739h1.175v1.559h-1.175v1.859H29.956z"/>
			<path style="fill:#FFFFFF;stroke:#000000;stroke-width:0.25;stroke-miterlimit:10;" d="M8.689,20.836v8.396H7.862l-0.697-3.25
				l-0.372-2.051l-0.018,0.036c0.065,1.056,0.106,2.626,0.106,3.562v1.703H6.055v-8.396h0.827l0.785,3.646
				c0.101,0.528,0.195,1.08,0.295,1.607l0.018-0.036c-0.071-1.056-0.118-2.495-0.118-3.274v-1.943H8.689z"/>
			<path style="fill:#FFFFFF;stroke:#000000;stroke-width:0.25;stroke-miterlimit:10;" d="M9.301,26.509v-2.95
				c0-1.799,0.502-2.867,1.34-2.867c0.839,0,1.34,1.068,1.34,2.867v2.95c0,1.799-0.501,2.867-1.34,2.867
				C9.802,29.376,9.301,28.309,9.301,26.509z M11.113,26.509v-2.95c0-0.792-0.16-1.211-0.473-1.211s-0.472,0.42-0.472,1.211v2.95
				c0,0.792,0.159,1.211,0.472,1.211S11.113,27.301,11.113,26.509z"/>
			<path style="fill:#FFFFFF;stroke:#000000;stroke-width:0.25;stroke-miterlimit:10;" d="M14.612,22.455v1.739h1.086v1.559h-1.086
				v3.478h-0.838v-8.396h2.043v1.619H14.612z"/>
			<path style="fill:#FFFFFF;stroke:#000000;stroke-width:0.25;stroke-miterlimit:10;" d="M17.451,26.413h-0.295v2.818h-0.838
				v-8.396h1.199c0.821,0,1.305,1.032,1.305,2.794c0,1.14-0.207,1.979-0.573,2.423l0.78,3.178h-0.916L17.451,26.413z M17.155,24.794
				h0.349c0.295,0,0.455-0.408,0.455-1.164c0-0.768-0.16-1.175-0.455-1.175h-0.349V24.794z"/>
			<path style="fill:#FFFFFF;stroke:#000000;stroke-width:0.25;stroke-miterlimit:10;" d="M20.259,20.836v8.396h-0.838v-8.396
				H20.259z"/>
			<path style="fill:#FFFFFF;stroke:#000000;stroke-width:0.25;stroke-miterlimit:10;" d="M23.181,27.613v1.619H20.99v-8.396h2.132
				v1.619h-1.293v1.739h1.175v1.559h-1.175v1.859H23.181z"/>
			<path style="fill:#FFFFFF;stroke:#000000;stroke-width:0.25;stroke-miterlimit:10;" d="M26.386,20.836v8.396h-0.827l-0.697-3.25
				l-0.372-2.051l-0.018,0.036c0.065,1.056,0.106,2.626,0.106,3.562v1.703h-0.827v-8.396h0.827l0.785,3.646
				c0.101,0.528,0.195,1.08,0.295,1.607l0.018-0.036c-0.071-1.056-0.118-2.495-0.118-3.274v-1.943H26.386z"/>
			<path style="fill:#FFFFFF;stroke:#000000;stroke-width:0.25;stroke-miterlimit:10;" d="M27.116,20.836h1.134
				c0.833,0,1.323,1.032,1.323,2.783v2.771c0,1.787-0.484,2.842-1.311,2.842h-1.146V20.836z M28.261,27.613
				c0.301,0,0.46-0.42,0.46-1.223v-2.771c0-0.768-0.159-1.164-0.46-1.164h-0.307v5.157H28.261z"/>
			<path style="fill:#FFFFFF;stroke:#000000;stroke-width:0.25;stroke-miterlimit:10;" d="M29.93,26.785h0.862
				c0,0.672,0.166,0.959,0.431,0.959c0.278,0,0.414-0.324,0.414-0.744c0-1.391-1.618-1.559-1.618-4.114
				c0-1.283,0.443-2.219,1.205-2.219s1.223,0.924,1.223,2.471h-0.862c0-0.552-0.124-0.828-0.366-0.828
				c-0.218,0-0.348,0.24-0.348,0.624c0,1.319,1.642,1.403,1.642,4.078c0,1.379-0.479,2.387-1.299,2.387
				C30.426,29.4,29.93,28.476,29.93,26.785z"/>
			<path style="fill:#FFFFFF;stroke:#000000;stroke-width:0.25;stroke-miterlimit:10;" d="M18.156,43.632l-0.496-2.519l-0.502,2.519
				h-0.921l0.975-4.342l-0.916-4.054h0.916l0.449,2.279l0.443-2.279h0.915l-0.915,4.054l0.974,4.342H18.156z"/>
			<path style="fill:#FFFFFF;stroke:#000000;stroke-width:0.25;stroke-miterlimit:10;" d="M19.465,35.236h1.134
				c0.833,0,1.323,1.032,1.323,2.783v2.771c0,1.787-0.484,2.842-1.311,2.842h-1.146V35.236z M20.611,42.013
				c0.301,0,0.46-0.42,0.46-1.223v-2.771c0-0.768-0.159-1.164-0.46-1.164h-0.307v5.157H20.611z"/>
		</g>
	</g>
</g>
<g id="Layer_1">
</g>
</svg>
