<?xml version="1.0" encoding="iso-8859-1"?>
<!-- Generator: Adobe Illustrator 28.3.0, SVG Export Plug-In . SVG Version: 6.00 Build 0)  -->
<svg version="1.1" xmlns="http://www.w3.org/2000/svg" xmlns:xlink="http://www.w3.org/1999/xlink" x="0px" y="0px"
	 viewBox="0 0 35.466 48.094" style="enable-background:new 0 0 35.466 48.094;" xml:space="preserve">
<g id="Graveyard_shift">
	<g id="Graveyard_keeper">
		<g>
			<path style="fill:#4A4B4C;stroke:#000000;stroke-width:2;stroke-miterlimit:10;" d="M32.573,40.946H3.106V9.572
				C3.106,4.838,6.944,1,11.679,1h12.323c4.734,0,8.572,3.838,8.572,8.572V40.946z"/>
			<g>
				<g>
					<path style="fill:#5C5D60;" d="M8.415,22.962c3.489-1.278,7.357-1.291,10.804,0.159c1.688,0.711,3.245,1.766,5.089,2.042
						c1.645,0.246,3.237-0.095,4.49-1.221c1.199-1.078-0.574-2.841-1.768-1.768c-1.156,1.039-2.897,0.501-4.143-0.055
						c-1.647-0.735-3.184-1.598-4.944-2.056c-3.353-0.873-6.94-0.702-10.192,0.488C6.251,21.1,6.899,23.517,8.415,22.962
						L8.415,22.962z"/>
				</g>
			</g>
			<path style="fill:#3C0A00;stroke:#000000;stroke-width:2;stroke-miterlimit:10;" d="M3.106,40.946l-1.831,3.142
				c-0.777,1.333,0.185,3.006,1.727,3.006h29.462c1.497,0,2.463-1.585,1.777-2.916l-1.667-3.232H3.106z"/>
		</g>
		<g>
			<path d="M13.164,12.868h-0.6v2.818h-1.703V7.291h2.435c1.667,0,2.65,1.032,2.65,2.794c0,1.14-0.419,1.979-1.163,2.423
				l1.583,3.178h-1.859L13.164,12.868z M12.565,11.249h0.708c0.6,0,0.923-0.408,0.923-1.164c0-0.768-0.324-1.175-0.923-1.175h-0.708
				V11.249z"/>
			<path d="M18.877,7.291v8.396h-1.703V7.291H18.877z"/>
			<path d="M25.571,10.146c0,1.787-1.031,2.842-2.771,2.842h-0.731v2.699h-1.703V7.291H22.8
				C24.539,7.291,25.571,8.347,25.571,10.146z M23.82,10.146c0-0.815-0.36-1.235-1.043-1.235h-0.708v2.458h0.708
				C23.46,11.369,23.82,10.949,23.82,10.146z"/>
		</g>
	</g>
</g>
<g id="Layer_1">
</g>
</svg>
