<?xml version="1.0" encoding="iso-8859-1"?>
<!-- Generator: Adobe Illustrator 28.3.0, SVG Export Plug-In . SVG Version: 6.00 Build 0)  -->
<svg version="1.1" xmlns="http://www.w3.org/2000/svg" xmlns:xlink="http://www.w3.org/1999/xlink" x="0px" y="0px"
	 viewBox="0 0 48.911 43.481" style="enable-background:new 0 0 48.911 43.481;" xml:space="preserve">
<g id="no">
	<g id="no_00000053523528166991391880000004768959380740804227_">
		<g>
			
				<ellipse transform="matrix(0.9997 -0.0239 0.0239 0.9997 -0.3694 0.5891)" style="fill:#3C1B0C;stroke:#000000;stroke-width:2;stroke-miterlimit:10;" cx="24.456" cy="15.747" rx="23.461" ry="11.423"/>
			<g id="First_guess_00000139287449637328179780000006908611648637468595_">
				<circle style="fill:#FFD294;stroke:#000000;stroke-width:2;stroke-miterlimit:10;" cx="24.861" cy="21.741" r="20.741"/>
				<path style="fill:none;stroke:#000000;stroke-width:2;stroke-miterlimit:10;" d="M25.682,24.94h-2.333
					c-0.222,0-0.403-0.18-0.403-0.403l0,0c0-0.222,0.18-0.403,0.403-0.403h2.333c0.222,0,0.403,0.18,0.403,0.403l0,0
					C26.085,24.759,25.904,24.94,25.682,24.94z"/>
				<path style="fill:none;stroke:#000000;stroke-width:2;stroke-miterlimit:10;" d="M37.78,24.197c0,0-2.184,6.141-13.212,6.141
					s-13.318-6.19-13.318-6.19"/>
				<ellipse style="fill:#FFFFFF;stroke:#000000;stroke-miterlimit:10;" cx="13.928" cy="18.098" rx="4.226" ry="6.037"/>
				<ellipse style="fill:#FFFFFF;stroke:#000000;stroke-miterlimit:10;" cx="35.102" cy="17.745" rx="4.226" ry="5.606"/>
				<ellipse style="stroke:#000000;stroke-miterlimit:10;" cx="35.102" cy="18.488" rx="1.16" ry="2.094"/>
				<ellipse style="stroke:#000000;stroke-miterlimit:10;" cx="13.928" cy="18.098" rx="1.16" ry="2.094"/>
			</g>
		</g>
		<path style="fill:#FFFFFF;stroke:#000000;stroke-width:2;stroke-miterlimit:10;" d="M22.226,36.375L22.226,36.375
			c-0.894,0-1.619-0.725-1.619-1.619v-2.799c0-0.894,0.725-1.619,1.619-1.619h0c0.894,0,1.619,0.725,1.619,1.619v2.799
			C23.844,35.65,23.12,36.375,22.226,36.375z"/>
		<path style="fill:#FFFFFF;stroke:#000000;stroke-width:2;stroke-miterlimit:10;" d="M27.733,36.343L27.733,36.343
			c-0.884,0.131-1.707-0.48-1.838-1.364l-0.41-2.769c-0.131-0.884,0.48-1.707,1.364-1.838h0c0.884-0.131,1.707,0.48,1.838,1.364
			l0.41,2.769C29.227,35.389,28.617,36.212,27.733,36.343z"/>
	</g>
</g>
<g id="Layer_1">
</g>
</svg>
