<?xml version="1.0" encoding="iso-8859-1"?>
<!-- Generator: Adobe Illustrator 28.3.0, SVG Export Plug-In . SVG Version: 6.00 Build 0)  -->
<svg version="1.1" xmlns="http://www.w3.org/2000/svg" xmlns:xlink="http://www.w3.org/1999/xlink" x="0px" y="0px"
	 viewBox="0 0 43.452 40.323" style="enable-background:new 0 0 43.452 40.323;" xml:space="preserve">
<g id="Perfection">
	<g id="Perfectionist">
		<g>
			<path style="fill:#58CAF1;stroke:#000000;stroke-width:2;stroke-miterlimit:10;" d="M42.093,12.46l-5.721-6.889
				c-0.068-0.082-0.144-0.151-0.225-0.205l-3.002-1.982c-0.105-0.069-7.704-0.112-10.782-0.126V3.253
				c-0.019,0-0.254,0.001-0.637,0.002c-0.383-0.002-0.618-0.002-0.637-0.002v0.005c-3.077,0.014-10.676,0.057-10.782,0.126
				L7.305,5.366C7.224,5.42,7.148,5.489,7.08,5.571L1.358,12.46C1.131,12.734,1,13.138,1,13.563c0,0.42,0.128,0.819,0.349,1.092
				l19.713,24.324c0.191,0.235,0.427,0.348,0.663,0.344c0.236,0.004,0.473-0.109,0.663-0.344l19.713-24.324
				c0.222-0.273,0.349-0.672,0.349-1.092C42.452,13.138,42.32,12.734,42.093,12.46z"/>
			<polyline style="fill:none;stroke:#000000;stroke-width:2;stroke-miterlimit:10;" points="7.08,5.571 21.726,37.331 
				36.372,5.571 			"/>
			<polyline style="fill:none;stroke:#000000;stroke-width:2;stroke-miterlimit:10;" points="1,13.563 10.548,13.563 42.452,13.563 
							"/>
			<polyline style="fill:none;stroke:#000000;stroke-width:2;stroke-miterlimit:10;" points="10.548,13.563 21.726,3.887 
				32.904,13.563 			"/>
		</g>
		<path style="fill:#FFFFFF;stroke:#000000;stroke-miterlimit:10;" d="M12.401,22.565c0.024-0.028,0.025-0.072-0.022-0.081
			c-1.937-0.374-2.505-3.267-2.67-4.723c-0.008-0.07-0.104-0.064-0.112,0.006c-0.364,3.204-2.756,4.537-3.14,4.732
			c-0.015,0.008,0.006,0.011,0.014,0.026c0,0.001,0.004,0.001,0.005,0.002c-0.024,0.028-0.026,0.072,0.021,0.081
			c1.937,0.374,2.505,3.267,2.67,4.723c0.008,0.07,0.104,0.064,0.112-0.005c0.364-3.205,2.756-4.537,3.14-4.732
			c0.015-0.008-0.006-0.011-0.014-0.026C12.405,22.566,12.402,22.566,12.401,22.565z"/>
		<path style="fill:#FFFFFF;stroke:#000000;stroke-miterlimit:10;" d="M33.63,4.274c0.016-0.029,0.009-0.069-0.034-0.068
			c-1.779,0.03-2.819-2.417-3.235-3.671c-0.02-0.06-0.103-0.037-0.097,0.026c0.275,2.896-1.588,4.517-1.891,4.761
			c-0.012,0.009,0.007,0.009,0.018,0.02c0,0.001,0.004,0,0.004,0.001c-0.016,0.029-0.009,0.069,0.034,0.068
			c1.779-0.03,2.819,2.417,3.235,3.671c0.02,0.06,0.103,0.037,0.097-0.026c-0.275-2.896,1.588-4.517,1.891-4.761
			c0.012-0.009-0.007-0.009-0.018-0.02C33.634,4.275,33.63,4.275,33.63,4.274z"/>
	</g>
</g>
<g id="Layer_1">
</g>
</svg>
