<?xml version="1.0" encoding="iso-8859-1"?>
<!-- Generator: Adobe Illustrator 28.3.0, SVG Export Plug-In . SVG Version: 6.00 Build 0)  -->
<svg version="1.1" xmlns="http://www.w3.org/2000/svg" xmlns:xlink="http://www.w3.org/1999/xlink" x="0px" y="0px"
	 viewBox="0 0 43.595 50.392" style="enable-background:new 0 0 43.595 50.392;" xml:space="preserve">
<g id="Rookie">
	<g id="Rookie_00000073705142572404647550000003459098006910689157_">
		<g id="First_guess_00000085208418997036086120000002862496693573045896_">
			<circle style="fill:#FFD294;stroke:#000000;stroke-width:2;stroke-miterlimit:10;" cx="21.854" cy="25.19" r="20.741"/>
			<path style="fill:none;stroke:#000000;stroke-width:2;stroke-miterlimit:10;" d="M27.082,23.658c0,0,0.574-3.472,3.472-3.472
				s3.5,3.5,3.5,3.5"/>
			<path style="fill:none;stroke:#000000;stroke-width:2;stroke-miterlimit:10;" d="M9.179,23.658c0,0,0.574-3.472,3.472-3.472
				s3.5,3.5,3.5,3.5"/>
			<path style="fill:none;stroke:#000000;stroke-width:2;stroke-miterlimit:10;" d="M22.676,28.39h-2.333
				c-0.222,0-0.403-0.18-0.403-0.403l0,0c0-0.222,0.18-0.403,0.403-0.403h2.333c0.222,0,0.403,0.18,0.403,0.403l0,0
				C23.078,28.209,22.898,28.39,22.676,28.39z"/>
			<path style="fill:none;stroke:#000000;stroke-width:2;stroke-miterlimit:10;" d="M34.774,27.692c0,0-2.184,11.797-13.212,11.797
				S8.244,27.598,8.244,27.598"/>
		</g>
		
			<ellipse transform="matrix(0.9997 -0.0239 0.0239 0.9997 -0.6535 0.522)" style="fill:none;stroke:#000000;stroke-width:2;stroke-miterlimit:10;" cx="21.509" cy="27.598" rx="17.009" ry="21.797"/>
		<path style="fill:#4A4B4D;stroke:#000000;stroke-width:2;stroke-miterlimit:10;" d="M41.154,18.081H1V7.128
			C1,3.744,3.744,1,7.128,1h27.899c3.384,0,6.128,2.744,6.128,6.128V18.081z"/>
	</g>
</g>
<g id="Layer_1">
</g>
</svg>
