<?xml version="1.0" encoding="iso-8859-1"?>
<!-- Generator: Adobe Illustrator 28.3.0, SVG Export Plug-In . SVG Version: 6.00 Build 0)  -->
<svg version="1.1" xmlns="http://www.w3.org/2000/svg" xmlns:xlink="http://www.w3.org/1999/xlink" x="0px" y="0px"
	 viewBox="0 0 43.481 46.639" style="enable-background:new 0 0 43.481 46.639;" xml:space="preserve">
<g id="Top_guesser">
	<g id="Top_guesser_00000089565298125933308000000012973496930517474711_">
		<g id="Face">
			<circle style="fill:#FFD294;stroke:#000000;stroke-width:2;stroke-miterlimit:10;" cx="21.741" cy="24.898" r="20.741"/>
			<g>
				<g>
					<path d="M22.786,9.078c-0.328-0.518,0.023-1.077,0.331-1.527c0.429-0.627,0.944-1.211,1.445-1.78
						c1.013-1.151,2.168-2.289,3.615-2.868c1.236-0.495,2.789-0.657,3.933,0.15c0.888,0.626,1.413,1.726,1.083,2.784
						c-0.48,1.54,1.933,2.198,2.411,0.665c0.598-1.919-0.228-4.022-1.762-5.256c-1.72-1.383-4.091-1.543-6.131-0.827
						c-2.109,0.74-3.777,2.239-5.205,3.917c-1.38,1.622-3.278,3.798-1.88,6.005C21.486,11.695,23.65,10.443,22.786,9.078
						L22.786,9.078z"/>
				</g>
			</g>
			<path style="fill:none;stroke:#000000;stroke-width:2;stroke-miterlimit:10;" d="M22.562,28.098h-2.333
				c-0.222,0-0.403-0.18-0.403-0.403l0,0c0-0.222,0.18-0.403,0.403-0.403h2.333c0.222,0,0.403,0.18,0.403,0.403l0,0
				C22.965,27.917,22.784,28.098,22.562,28.098z"/>
			<path style="fill:none;stroke:#000000;stroke-width:2;stroke-miterlimit:10;" d="M34.66,30.63c0,0-2.184,8.567-13.212,8.567
				S8.13,30.561,8.13,30.561"/>
		</g>
		<path style="stroke:#000000;stroke-width:2;stroke-miterlimit:10;" d="M23.867,17.562v1.37h-4.944v-1.37H6.367v5.093
			c0,1.115,0.904,2.019,2.019,2.019h8.518c1.115,0,2.019-0.904,2.019-2.019v0c0-1.115,0.904-2.019,2.019-2.019h0.907
			c1.115,0,2.019,0.904,2.019,2.019v0c0,1.115,0.904,2.019,2.019,2.019h8.518c1.115,0,2.019-0.904,2.019-2.019v-5.093H23.867z"/>
		
			<rect x="34.852" y="18.858" transform="matrix(0.982 -0.1886 0.1886 0.982 -2.97 7.4694)" style="stroke:#000000;stroke-width:2;stroke-miterlimit:10;" width="5.815" height="0.963"/>
		
			<rect x="2.497" y="18.691" transform="matrix(-0.982 -0.1886 0.1886 -0.982 7.0955 39.0205)" style="stroke:#000000;stroke-width:2;stroke-miterlimit:10;" width="5.815" height="0.963"/>
		<path style="fill:none;stroke:#FFFFFF;stroke-miterlimit:10;" d="M8.741,20.589c0,0,0.111-1.944,1.833-1.944"/>
		<path style="fill:none;stroke:#FFFFFF;stroke-miterlimit:10;" d="M25.989,20.589c0,0,0.111-1.944,1.833-1.944"/>
	</g>
</g>
<g id="Layer_1">
</g>
</svg>
