<?xml version="1.0" encoding="iso-8859-1"?>
<!-- Generator: Adobe Illustrator 28.3.0, SVG Export Plug-In . SVG Version: 6.00 Build 0)  -->
<svg version="1.1" xmlns="http://www.w3.org/2000/svg" xmlns:xlink="http://www.w3.org/1999/xlink" x="0px" y="0px"
	 viewBox="0 0 43.595 50.467" style="enable-background:new 0 0 43.595 50.467;" xml:space="preserve">
<g id="Veteran">
	<g id="Veteran_00000160182055399260537430000004257681423903949489_">
		<g id="Rookie_00000078041820426062834270000010625892629796359358_">
			<g id="First_guess_00000142136157628170523440000013992255973978877618_">
				<circle style="fill:#FFD294;stroke:#000000;stroke-width:2;stroke-miterlimit:10;" cx="21.854" cy="25.265" r="20.741"/>
				<path style="fill:none;stroke:#000000;stroke-width:2;stroke-miterlimit:10;" d="M27.082,23.74c0,0,0.574-2.557,3.472-2.557
					s3.5,2.578,3.5,2.578"/>
				<path style="fill:none;stroke:#000000;stroke-width:2;stroke-miterlimit:10;" d="M9.179,23.732c0,0,0.574-3.472,3.472-3.472
					s3.5,3.5,3.5,3.5"/>
				<path style="fill:none;stroke:#000000;stroke-width:2;stroke-miterlimit:10;" d="M22.676,28.464h-2.333
					c-0.222,0-0.403-0.18-0.403-0.403l0,0c0-0.222,0.18-0.403,0.403-0.403h2.333c0.222,0,0.403,0.18,0.403,0.403l0,0
					C23.078,28.284,22.898,28.464,22.676,28.464z"/>
				<path style="fill:none;stroke:#000000;stroke-width:2;stroke-miterlimit:10;" d="M28.894,35.978c0,0-1.216-2.897-7.356-2.897
					s-7.415,2.921-7.415,2.921"/>
			</g>
			<path style="stroke:#000000;stroke-width:2;stroke-miterlimit:10;" d="M13.636,25.265h-1.942c-1.726,0-3.125-1.399-3.125-3.125
				V21.1c0-0.795,0.645-1.44,1.44-1.44h5.312c0.795,0,1.44,0.645,1.44,1.44v1.04C16.761,23.866,15.362,25.265,13.636,25.265z"/>
			
				<ellipse transform="matrix(0.9997 -0.0239 0.0239 0.9997 -0.6553 0.522)" style="fill:none;stroke:#000000;stroke-width:2;stroke-miterlimit:10;" cx="21.509" cy="27.672" rx="17.009" ry="21.797"/>
			<path style="fill:#3C5B38;stroke:#000000;stroke-width:2;stroke-miterlimit:10;" d="M41.154,18.156H1V7.203
				c0-3.384,2.744-6.128,6.128-6.128h27.899c3.384,0,6.128,2.744,6.128,6.128V18.156z"/>
		</g>
		<path style="fill:#3C5B38;stroke:#000000;stroke-width:2;stroke-miterlimit:10;" d="M41.154,18.156"/>
		<path style="fill:none;stroke:#533512;stroke-width:2;stroke-miterlimit:10;" d="M40.668,17.479c0,0-17.316-10.074-38.917,0"/>
		<path style="fill:none;stroke:#000000;stroke-width:2;stroke-miterlimit:10;" d="M41.586,18.081H1.432V7.128
			C1.432,3.744,4.175,1,7.56,1h27.899c3.384,0,6.128,2.744,6.128,6.128V18.081z"/>
		<path style="fill:none;stroke:#000000;stroke-width:2;stroke-miterlimit:10;" d="M12.665,22.463c0,0-9.997,1.036-9.701-4.382"/>
		<path style="fill:none;stroke:#000000;stroke-width:2;stroke-miterlimit:10;" d="M15.113,22.01c0,0,18.667-4.438,24.815-3.929"/>
	</g>
</g>
<g id="Layer_1">
</g>
</svg>
