<?xml version="1.0" encoding="iso-8859-1"?>
<!-- Generator: Adobe Illustrator 28.3.0, SVG Export Plug-In . SVG Version: 6.00 Build 0)  -->
<svg version="1.1" xmlns="http://www.w3.org/2000/svg" xmlns:xlink="http://www.w3.org/1999/xlink" x="0px" y="0px"
	 viewBox="0 0 36.201 47.95" style="enable-background:new 0 0 36.201 47.95;" xml:space="preserve">
<g id="Wildfire">
	<g id="Wildfire_00000073682366215781400240000003090399472301040019_">
		<g>
			<path style="fill:#F7941D;stroke:#000000;stroke-width:2;stroke-miterlimit:10;" d="M30.603,39.741
				c6.83-5.839,4.455-13.583,2.908-16.985c-0.161-0.354-0.68-0.269-0.732,0.117c-0.105,0.785-0.529,1.513-1.757,1.469
				c-2.453-0.088-2.357-2.437-2.336-2.724c0.001-0.019,0.004-0.035,0.008-0.054c2.557-10.593-8.579-17.489-11.344-19.018
				c-0.267-0.147-0.589,0.056-0.57,0.36c0.058,0.931,0.193,2.807,0.475,5.571c0.42,4.106-3.22,4.106-4.013,3.92
				c-0.748-0.176-2.992,7.997-3.244,8.921c-0.015,0.054-0.018,0.11-0.008,0.165c0.115,0.65,0.786,5.034-2.021,5.379
				c-2.627,0.323-2.979-4.219-3.026-5.441C4.933,21.11,4.572,20.93,4.33,21.125c-0.52,0.419-1.405,1.853-2.776,6.157
				c-2.056,6.456,2.155,11.488,3.704,13.063c0.236,0.24,0.072,0.663-0.264,0.655C4.984,41,4.974,41,4.963,41
				c-0.369-0.013-0.566,0.423-0.295,0.674c5.87,5.444,12.929,5.275,12.929,5.275l0,0c3.109,0.085,9.917-3.014,12.842-4.821
				c0.283-0.175,0.229-0.623-0.095-0.697C29.343,41.201,30.603,39.741,30.603,39.741z"/>
			<path style="fill:#F7941D;stroke:#000000;stroke-miterlimit:10;" d="M7.6,10.356c-1.773-0.56-2.053,6.346-2.053,6.346
				S9.373,10.916,7.6,10.356z"/>
			<path style="fill:#F7941D;stroke:#000000;stroke-miterlimit:10;" d="M32.145,10.52c0,0,0.373-1.751-1.12-2.871
				c-1.493-1.12,0.56,5.863,0.56,5.863L32.145,10.52z"/>
			<path style="fill:#F7941D;stroke:#000000;stroke-miterlimit:10;" d="M12.359,0.65c-1.493-1.493,0.653,8.679,0.653,8.679
				S13.853,2.143,12.359,0.65z"/>
		</g>
		<g>
			<path style="fill:#FFFFFF;" d="M23.746,31.419v2.023c0,3.769-2.133,5.902-5.32,5.902c-3.187,0-5.209-2.134-5.292-5.597h3.824
				c0.083,1.468,0.554,1.939,1.468,1.939c0.942,0,1.497-0.499,1.497-2.189v-2.134c0-1.718-0.499-2.189-1.302-2.189
				c-0.859,0-1.386,0.388-1.58,1.579h-3.713V19.615h9.754v3.325h-5.985v3.187c0.582-0.305,1.303-0.526,2.023-0.526
				C21.807,25.6,23.746,27.706,23.746,31.419z"/>
		</g>
	</g>
</g>
<g id="Layer_1">
</g>
</svg>
