<?xml version="1.0" encoding="utf-8"?>
<!-- Generator: Adobe Illustrator 28.3.0, SVG Export Plug-In . SVG Version: 6.00 Build 0)  -->
<svg version="1.1" id="Layer_1" xmlns="http://www.w3.org/2000/svg" xmlns:xlink="http://www.w3.org/1999/xlink" x="0px" y="0px"
	 viewBox="0 0 106.41 55.37" style="enable-background:new 0 0 106.41 55.37;" xml:space="preserve">
<style type="text/css">
	.st0{fill:none;stroke:#000000;stroke-width:5;stroke-miterlimit:10;}
	.st1{fill:#39B54A;}
	.st2{fill:none;stroke:#39B54A;stroke-width:6;stroke-miterlimit:10;}
	.st3{fill:#FFFFFF;}
	.st4{fill:none;stroke:#FFFFFF;stroke-width:3;stroke-miterlimit:10;}
	.st5{stroke:#FFFFFF;stroke-miterlimit:10;}
	.st6{fill:#F7941D;}
	.st7{fill:#00AEEF;}
</style>
<g id="Classsic">
	<g id="Eye">
		<ellipse class="st0" cx="53.21" cy="27.69" rx="50.71" ry="25.19"/>
		<path class="st1" d="M58.48,38.62c0.01,0.7-0.25,1.3-0.68,1.84c-0.27,0.33-0.61,0.46-1.02,0.32c-0.41-0.14-0.38-0.52-0.38-0.84
			c0.01-0.81,0.29-1.49,1.07-1.88C58.16,37.71,58.47,37.88,58.48,38.62L58.48,38.62z M40.25,16.55c-0.02-0.04-0.04-0.07-0.04-0.11
			c0.6-0.56,1.25-1.08,1.92-1.55c0.09,0.03,0.17,0.09,0.23,0.17c0.22,0.25,0.41,0.54,0.57,0.83c0.15,0.26-0.15,0.78,0.33,0.83
			c0.41,0.04,0.94,0.22,1.25-0.14c1-1.2,2.29-1.19,3.69-1.09c0.8,0.06,1.6-1.03,1.49-1.82c-0.05-0.35-0.37-0.32-0.55-0.16
			c-0.32,0.28-0.59,0.64-0.87,0.97c-0.68,0.8-2.84,0.87-3.55,0.12c-0.14-0.15-0.22-0.32-0.07-0.51c0.12-0.15,0.23-0.34,0.39-0.43
			c0.86-0.48,1.74-0.95,2.65-1.27c0.87-0.22,1.77-0.37,2.7-0.45c0.23,0.01,0.45,0.03,0.69,0.07c0.89,0.14,1.84,0.33,2.58,0.79
			c1.1,0.68,2.09,0.58,3.14,0.06c0.11-0.05,0.22-0.11,0.32-0.17c6.02,1.93,10.58,7.1,11.64,13.46c-0.22,0.19-0.44,0.39-0.68,0.57
			c-0.64,0.47-0.95,1.06-0.89,1.87c0.05,0.63,0.04,1.32-0.8,1.49c-0.7,0.14-1.14-0.3-1.4-1.34c-0.15-0.61-0.22-1.25-0.42-1.84
			c-0.33-1-0.94-1.69-2.12-1.62c-1.01,0.06-1.72-0.56-2.49-1.07c-0.33-0.21-0.76-0.55-1-0.12c-0.17,0.29,0.18,0.74,0.54,0.92
			c0.34,0.17,0.73,0.25,1.09,0.4c0.65,0.27,0.82,0.64,0.51,1.26c-0.51,1.02-1.39,1.6-2.46,1.89c-0.71,0.19-1.22-0.24-1.61-0.77
			c-0.71-0.98-1.39-1.99-2.08-2.99c-0.17-0.24-0.32-0.49-0.5-0.71c-0.09-0.11-0.26-0.17-0.38-0.06c-0.1,0.09-0.22,0.25-0.2,0.36
			c0.05,0.28,0.13,0.57,0.26,0.83c0.7,1.35,1.64,2.52,2.69,3.6c0.34,0.35,0.81,0.5,1.26,0.7c0.95,0.42,1.09,0.95,0.51,1.84
			c-0.46,0.7-1.08,1.26-1.75,1.74c-1.12,0.8-1.52,1.79-1.11,3.15c0.28,0.93,0.05,1.85-0.66,2.56c-0.49,0.5-0.82,1.06-1.03,1.72
			c-0.16,0.5-0.42,0.98-0.72,1.42c-1.44,2.11-4.26,2.06-5.7-0.08c-0.8-1.2-1.35-2.46-1.12-3.95c0.13-0.89-0.06-1.72-0.44-2.54
			c-0.28-0.61-0.44-1.28-0.67-1.92c-0.5-1.37-1.29-1.92-2.75-1.89c-0.43,0.01-0.87,0.11-1.3,0.13c-2.51,0.12-3.98-1.73-3.61-4.22
			c0.45-3.07,2.05-5.05,5-5.95c1.48-1.12,1.75-1.11,3.3-0.05c1.13,0.77,2.37,1.12,3.71,0.67c0.57-0.19,1.12-0.25,1.68-0.16
			c-0.55-0.31-0.96-0.92-1.64-0.94c-0.87-0.03-1.75-0.54-2.61,0.21c-0.33,0.29-0.93,0.16-1.19-0.21c-0.7-1.02-1.47-0.64-2.26-0.22
			c-0.43,0.23-0.86,0.4-1.35,0.42c-0.39,0-0.78,0.02-1.16-0.01c-0.7-0.06-1.05-0.4-1.03-0.96c0.03-0.67,0.51-1.29,1.07-1.35
			c0.29-0.03,0.58,0.04,0.87,0c0.3-0.03,0.35-0.28,0.35-0.54c-0.01-0.29-0.11-0.43-0.44-0.36c-0.33,0.06-0.83,0.13-0.93-0.18
			C40.92,17.29,40.52,16.98,40.25,16.55L40.25,16.55z"/>
		<circle class="st2" cx="52.28" cy="27.69" r="19.05"/>
		<circle class="st3" cx="41.54" cy="15.38" r="4.99"/>
		<circle class="st3" cx="63.33" cy="42.53" r="2.44"/>
		<circle class="st4" cx="52.28" cy="27.69" r="17.29"/>
	</g>
	<g id="Text_00000008111924297555855850000015118607170796404896_">
		<g>
			<path d="M8.85,30.55v-7.92c0-4.31,2.33-6.64,6.32-6.64c4.08,0,6.35,2.33,6.5,6.64h-4.14c-0.12-1.86-0.82-2.62-2.39-2.62
				c-1.25,0-1.98,0.82-1.98,2.62v7.92c0,1.75,0.7,2.56,1.98,2.56c1.6,0,2.33-0.76,2.45-2.56h4.14c-0.09,4.28-2.45,6.58-6.58,6.58
				C11.18,37.14,8.85,34.83,8.85,30.55z"/>
			<path d="M34.31,32.85v3.93H24.11V16.4h4.14v16.46H34.31z"/>
			<path d="M43.83,33.41h-4.31l-0.67,3.38h-4.28l4.89-20.39h4.43l4.89,20.39H44.5L43.83,33.41z M43.02,29.47l-0.47-2.33
				c-0.26-1.46-0.61-3.93-0.82-5.59h-0.12c-0.2,1.66-0.52,4.14-0.82,5.59l-0.47,2.33H43.02z"/>
			<path d="M49.42,30.84h4.25c0,1.63,0.82,2.33,2.13,2.33c1.37,0,2.04-0.79,2.04-1.81c0-3.38-7.98-3.79-7.98-9.99
				c0-3.12,2.19-5.39,5.94-5.39c3.76,0,6.03,2.24,6.03,6h-4.25c0-1.34-0.61-2.01-1.81-2.01c-1.08,0-1.72,0.58-1.72,1.51
				c0,3.2,8.1,3.41,8.1,9.9c0,3.35-2.36,5.8-6.41,5.8C51.87,37.19,49.42,34.95,49.42,30.84z"/>
			<path d="M63.38,30.84h4.25c0,1.63,0.82,2.33,2.13,2.33c1.37,0,2.04-0.79,2.04-1.81c0-3.38-7.98-3.79-7.98-9.99
				c0-3.12,2.19-5.39,5.94-5.39c3.76,0,6.03,2.24,6.03,6h-4.25c0-1.34-0.61-2.01-1.81-2.01c-1.08,0-1.72,0.58-1.72,1.51
				c0,3.2,8.1,3.41,8.1,9.9c0,3.35-2.36,5.8-6.41,5.8C65.82,37.19,63.38,34.95,63.38,30.84z"/>
			<path d="M82.43,16.4v20.39h-4.14V16.4H82.43z"/>
			<path d="M85.46,30.55v-7.92c0-4.31,2.33-6.64,6.32-6.64c4.08,0,6.35,2.33,6.5,6.64h-4.14c-0.12-1.86-0.82-2.62-2.39-2.62
				c-1.25,0-1.98,0.82-1.98,2.62v7.92c0,1.75,0.7,2.56,1.98,2.56c1.6,0,2.33-0.76,2.45-2.56h4.14c-0.09,4.28-2.45,6.58-6.58,6.58
				C87.79,37.14,85.46,34.83,85.46,30.55z"/>
		</g>
		<g>
			<g>
				<path d="M6,30.67v-8.4c0-4.57,2.47-7.04,6.7-7.04c4.32,0,6.73,2.47,6.88,7.04H15.2c-0.12-1.98-0.86-2.78-2.53-2.78
					c-1.33,0-2.1,0.86-2.1,2.78v8.4c0,1.85,0.74,2.72,2.1,2.72c1.7,0,2.47-0.8,2.59-2.72h4.38c-0.09,4.54-2.59,6.98-6.98,6.98
					C8.47,37.65,6,35.21,6,30.67z"/>
				<path d="M32.98,33.11v4.17h-10.8V15.67h4.38v17.44H32.98z"/>
				<path d="M43.07,33.7H38.5l-0.71,3.58h-4.54l5.19-21.61h4.69l5.19,21.61h-4.54L43.07,33.7z M42.21,29.53l-0.49-2.47
					c-0.28-1.54-0.65-4.17-0.86-5.93h-0.12c-0.22,1.76-0.56,4.38-0.86,5.93l-0.49,2.47H42.21z"/>
				<path d="M48.99,30.98h4.51c0,1.73,0.86,2.47,2.25,2.47c1.45,0,2.16-0.83,2.16-1.91c0-3.58-8.46-4.01-8.46-10.59
					c0-3.3,2.32-5.71,6.3-5.71s6.39,2.38,6.39,6.36h-4.51c0-1.42-0.65-2.13-1.91-2.13c-1.14,0-1.82,0.62-1.82,1.6
					c0,3.4,8.58,3.61,8.58,10.5c0,3.55-2.5,6.14-6.79,6.14C51.59,37.71,48.99,35.33,48.99,30.98z"/>
				<path d="M63.78,30.98h4.51c0,1.73,0.86,2.47,2.25,2.47c1.45,0,2.16-0.83,2.16-1.91c0-3.58-8.46-4.01-8.46-10.59
					c0-3.3,2.32-5.71,6.3-5.71s6.39,2.38,6.39,6.36h-4.51c0-1.42-0.65-2.13-1.91-2.13c-1.14,0-1.82,0.62-1.82,1.6
					c0,3.4,8.58,3.61,8.58,10.5c0,3.55-2.5,6.14-6.79,6.14C66.37,37.71,63.78,35.33,63.78,30.98z"/>
				<path d="M83.96,15.67v21.61h-4.38V15.67H83.96z"/>
				<path d="M87.17,30.67v-8.4c0-4.57,2.47-7.04,6.7-7.04c4.32,0,6.73,2.47,6.88,7.04h-4.38c-0.12-1.98-0.86-2.78-2.53-2.78
					c-1.33,0-2.1,0.86-2.1,2.78v8.4c0,1.85,0.74,2.72,2.1,2.72c1.7,0,2.47-0.8,2.59-2.72h4.38c-0.09,4.54-2.59,6.98-6.98,6.98
					C89.64,37.65,87.17,35.21,87.17,30.67z"/>
			</g>
			<g>
				<path class="st5" d="M6,30.67v-8.4c0-4.57,2.47-7.04,6.7-7.04c4.32,0,6.73,2.47,6.88,7.04H15.2c-0.12-1.98-0.86-2.78-2.53-2.78
					c-1.33,0-2.1,0.86-2.1,2.78v8.4c0,1.85,0.74,2.72,2.1,2.72c1.7,0,2.47-0.8,2.59-2.72h4.38c-0.09,4.54-2.59,6.98-6.98,6.98
					C8.47,37.65,6,35.21,6,30.67z"/>
				<path class="st5" d="M32.98,33.11v4.17h-10.8V15.67h4.38v17.44H32.98z"/>
				<path class="st5" d="M43.07,33.7H38.5l-0.71,3.58h-4.54l5.19-21.61h4.69l5.19,21.61h-4.54L43.07,33.7z M42.21,29.53l-0.49-2.47
					c-0.28-1.54-0.65-4.17-0.86-5.93h-0.12c-0.22,1.76-0.56,4.38-0.86,5.93l-0.49,2.47H42.21z"/>
				<path class="st5" d="M48.99,30.98h4.51c0,1.73,0.86,2.47,2.25,2.47c1.45,0,2.16-0.83,2.16-1.91c0-3.58-8.46-4.01-8.46-10.59
					c0-3.3,2.32-5.71,6.3-5.71s6.39,2.38,6.39,6.36h-4.51c0-1.42-0.65-2.13-1.91-2.13c-1.14,0-1.82,0.62-1.82,1.6
					c0,3.4,8.58,3.61,8.58,10.5c0,3.55-2.5,6.14-6.79,6.14C51.59,37.71,48.99,35.33,48.99,30.98z"/>
				<path class="st5" d="M63.78,30.98h4.51c0,1.73,0.86,2.47,2.25,2.47c1.45,0,2.16-0.83,2.16-1.91c0-3.58-8.46-4.01-8.46-10.59
					c0-3.3,2.32-5.71,6.3-5.71s6.39,2.38,6.39,6.36h-4.51c0-1.42-0.65-2.13-1.91-2.13c-1.14,0-1.82,0.62-1.82,1.6
					c0,3.4,8.58,3.61,8.58,10.5c0,3.55-2.5,6.14-6.79,6.14C66.37,37.71,63.78,35.33,63.78,30.98z"/>
				<path class="st5" d="M83.96,15.67v21.61h-4.38V15.67H83.96z"/>
				<path class="st5" d="M87.17,30.67v-8.4c0-4.57,2.47-7.04,6.7-7.04c4.32,0,6.73,2.47,6.88,7.04h-4.38
					c-0.12-1.98-0.86-2.78-2.53-2.78c-1.33,0-2.1,0.86-2.1,2.78v8.4c0,1.85,0.74,2.72,2.1,2.72c1.7,0,2.47-0.8,2.59-2.72h4.38
					c-0.09,4.54-2.59,6.98-6.98,6.98C89.64,37.65,87.17,35.21,87.17,30.67z"/>
			</g>
		</g>
	</g>
</g>
<g id="Streak">
	<g id="Flame">
		<g>
			<path class="st6" d="M187.87,49.36c9.24-7.9,6.03-18.38,3.94-22.98c-0.22-0.48-0.92-0.36-0.99,0.16
				c-0.14,1.06-0.72,2.05-2.38,1.99c-3.32-0.12-3.19-3.3-3.16-3.69c0-0.03,0.01-0.05,0.01-0.07c3.46-14.33-11.61-23.66-15.35-25.73
				c-0.36-0.2-0.8,0.08-0.77,0.49c0.08,1.26,0.26,3.8,0.64,7.54c0.57,5.56-4.36,5.56-5.43,5.3c-1.01-0.24-4.05,10.82-4.39,12.07
				c-0.02,0.07-0.02,0.15-0.01,0.22c0.16,0.88,1.06,6.81-2.74,7.28c-3.55,0.44-4.03-5.71-4.09-7.36c-0.02-0.42-0.5-0.66-0.83-0.4
				c-0.7,0.57-1.9,2.51-3.76,8.33c-2.78,8.74,2.92,15.54,5.01,17.68c0.32,0.32,0.1,0.9-0.36,0.89c-0.01,0-0.03,0-0.04,0
				c-0.5-0.02-0.77,0.57-0.4,0.91c7.94,7.37,17.49,7.14,17.49,7.14l0,0c4.21,0.12,13.42-4.08,17.38-6.52
				c0.38-0.24,0.31-0.84-0.13-0.94C186.17,51.33,187.87,49.36,187.87,49.36z"/>
			<path class="st6" d="M156.75,9.6c-2.4-0.76-2.78,8.59-2.78,8.59S159.15,10.35,156.75,9.6z"/>
			<path class="st6" d="M189.96,9.82c0,0,0.51-2.37-1.52-3.88c-2.02-1.52,0.76,7.93,0.76,7.93L189.96,9.82z"/>
			<path class="st6" d="M163.19-3.54c-2.02-2.02,0.88,11.74,0.88,11.74S165.21-1.52,163.19-3.54z"/>
		</g>
		<path class="st3" d="M178.45,52.6c0.01,0.82-0.29,1.53-0.8,2.16c-0.31,0.39-0.72,0.54-1.2,0.37c-0.48-0.16-0.45-0.61-0.44-0.99
			c0.02-0.96,0.34-1.75,1.26-2.21C178.08,51.53,178.44,51.73,178.45,52.6L178.45,52.6z M157.01,26.65
			c-0.03-0.04-0.04-0.09-0.05-0.13c0.71-0.66,1.46-1.27,2.26-1.82c0.1,0.04,0.2,0.11,0.27,0.2c0.26,0.3,0.48,0.63,0.68,0.98
			c0.18,0.31-0.18,0.92,0.39,0.97c0.48,0.05,1.11,0.26,1.47-0.17c1.18-1.41,2.7-1.4,4.33-1.28c0.94,0.07,1.88-1.21,1.75-2.15
			c-0.06-0.41-0.44-0.38-0.65-0.19c-0.38,0.33-0.69,0.75-1.02,1.14c-0.8,0.94-3.34,1.02-4.18,0.14c-0.17-0.18-0.25-0.38-0.08-0.6
			c0.14-0.18,0.27-0.4,0.45-0.5c1.02-0.56,2.04-1.11,3.11-1.5c1.03-0.26,2.09-0.44,3.17-0.53c0.27,0.01,0.53,0.04,0.81,0.08
			c1.04,0.17,2.16,0.39,3.04,0.93c1.3,0.8,2.45,0.68,3.69,0.07c0.13-0.06,0.26-0.13,0.38-0.2c7.08,2.27,12.45,8.35,13.69,15.83
			c-0.26,0.23-0.52,0.46-0.8,0.67c-0.75,0.55-1.11,1.24-1.04,2.2c0.06,0.75,0.05,1.55-0.94,1.75c-0.83,0.16-1.35-0.35-1.65-1.58
			c-0.18-0.72-0.26-1.47-0.5-2.17c-0.39-1.17-1.11-1.99-2.5-1.9c-1.18,0.07-2.03-0.66-2.93-1.25c-0.38-0.25-0.89-0.64-1.18-0.14
			c-0.2,0.34,0.21,0.87,0.64,1.09c0.4,0.2,0.86,0.29,1.28,0.47c0.76,0.32,0.96,0.75,0.6,1.48c-0.59,1.2-1.64,1.89-2.89,2.22
			c-0.83,0.22-1.44-0.28-1.89-0.9c-0.84-1.15-1.63-2.34-2.44-3.51c-0.19-0.28-0.37-0.58-0.59-0.84c-0.1-0.13-0.31-0.2-0.45-0.07
			c-0.12,0.11-0.26,0.29-0.24,0.42c0.06,0.33,0.15,0.67,0.31,0.97c0.82,1.59,1.93,2.96,3.16,4.24c0.4,0.41,0.96,0.59,1.48,0.82
			c1.12,0.49,1.28,1.12,0.6,2.16c-0.54,0.82-1.27,1.48-2.05,2.05c-1.32,0.95-1.79,2.1-1.3,3.71c0.33,1.1,0.06,2.17-0.77,3.01
			c-0.58,0.58-0.96,1.24-1.22,2.02c-0.19,0.59-0.5,1.16-0.85,1.67c-1.69,2.49-5.01,2.42-6.7-0.09c-0.95-1.41-1.58-2.89-1.32-4.65
			c0.16-1.04-0.07-2.02-0.52-2.99c-0.33-0.72-0.51-1.51-0.78-2.26c-0.58-1.61-1.51-2.25-3.24-2.23c-0.51,0.01-1.02,0.13-1.53,0.15
			c-2.95,0.14-4.68-2.04-4.25-4.96c0.53-3.61,2.41-5.93,5.88-6.99c1.74-1.32,2.05-1.3,3.88-0.06c1.33,0.91,2.78,1.32,4.37,0.79
			c0.67-0.22,1.32-0.3,1.97-0.18c-0.64-0.37-1.13-1.08-1.93-1.11c-1.03-0.04-2.06-0.63-3.07,0.25c-0.39,0.34-1.1,0.19-1.4-0.24
			c-0.82-1.2-1.73-0.75-2.66-0.25c-0.5,0.27-1.02,0.47-1.59,0.5c-0.46,0-0.91,0.03-1.37-0.01c-0.83-0.07-1.23-0.47-1.21-1.13
			c0.03-0.78,0.6-1.52,1.26-1.58c0.34-0.03,0.68,0.04,1.02,0c0.35-0.04,0.42-0.33,0.41-0.63c-0.01-0.34-0.13-0.5-0.52-0.43
			c-0.39,0.08-0.98,0.16-1.09-0.21C157.81,27.51,157.33,27.15,157.01,26.65L157.01,26.65z"/>
	</g>
	<g id="Text_00000078030243858464235850000007891356555798334646_">
		<g>
			<path d="M125.71,30.23h4.6c0,1.77,0.88,2.53,2.3,2.53c1.48,0,2.21-0.85,2.21-1.96c0-3.67-8.63-4.11-8.63-10.84
				c0-3.38,2.36-5.85,6.43-5.85c4.06,0,6.52,2.43,6.52,6.51h-4.6c0-1.45-0.66-2.18-1.95-2.18c-1.17,0-1.86,0.63-1.86,1.64
				c0,3.48,8.76,3.7,8.76,10.75c0,3.64-2.55,6.29-6.93,6.29C128.36,37.12,125.71,34.69,125.71,30.23z"/>
			<path d="M153.92,18.82h-4.32v17.86H145V18.82h-4.32v-4.27h13.23V18.82z"/>
			<path d="M162.08,29.25h-1.58v7.43h-4.47V14.55h6.4c4.38,0,6.96,2.72,6.96,7.37c0,3-1.1,5.22-3.06,6.39l4.16,8.38h-4.88
				L162.08,29.25z M160.5,24.98h1.86c1.58,0,2.43-1.08,2.43-3.07c0-2.02-0.85-3.1-2.43-3.1h-1.86V24.98z"/>
			<path d="M184.3,32.41v4.27h-11.69V14.55h11.38v4.27h-6.9v4.58h6.27v4.11h-6.27v4.9H184.3z"/>
			<path d="M195.51,33.01h-4.66l-0.72,3.67h-4.63l5.29-22.13h4.79l5.29,22.13h-4.63L195.51,33.01z M194.63,28.75l-0.5-2.53
				c-0.28-1.58-0.66-4.27-0.88-6.07h-0.13c-0.22,1.8-0.57,4.49-0.88,6.07l-0.5,2.53H194.63z"/>
			<path d="M208.56,28.3l-1.23,1.99v6.39h-4.41V14.55h4.41v8.47l1.13-2.47l3.09-6.01h5.1l-5.61,9.67l6.55,12.46h-5.04L208.56,28.3z"
				/>
		</g>
		<g>
			<path class="st5" d="M122.43,30.38h4.89c0,1.88,0.94,2.68,2.45,2.68c1.57,0,2.35-0.9,2.35-2.08c0-3.89-9.18-4.36-9.18-11.49
				c0-3.59,2.51-6.2,6.84-6.2c4.32,0,6.94,2.58,6.94,6.9h-4.89c0-1.54-0.7-2.31-2.08-2.31c-1.24,0-1.98,0.67-1.98,1.74
				c0,3.69,9.32,3.92,9.32,11.39c0,3.85-2.71,6.67-7.37,6.67C125.24,37.69,122.43,35.11,122.43,30.38z"/>
			<path class="st5" d="M152.41,18.28h-4.59v18.93h-4.89V18.28h-4.59v-4.52h14.07V18.28z"/>
			<path class="st5" d="M161.09,29.34h-1.68v7.87h-4.76V13.76h6.8c4.66,0,7.41,2.88,7.41,7.81c0,3.18-1.17,5.53-3.25,6.77l4.42,8.88
				h-5.19L161.09,29.34z M159.41,24.82h1.98c1.68,0,2.58-1.14,2.58-3.25c0-2.14-0.9-3.28-2.58-3.28h-1.98V24.82z"/>
			<path class="st5" d="M184.71,32.69v4.52h-12.43V13.76h12.1v4.52h-7.34v4.86h6.67v4.36h-6.67v5.19H184.71z"/>
			<path class="st5" d="M196.64,33.33h-4.96l-0.77,3.89h-4.93l5.63-23.46h5.09l5.63,23.46h-4.93L196.64,33.33z M195.7,28.81
				l-0.54-2.68c-0.3-1.68-0.7-4.52-0.94-6.43h-0.13c-0.23,1.91-0.6,4.76-0.94,6.43l-0.54,2.68H195.7z"/>
			<path class="st5" d="M210.51,28.34l-1.31,2.11v6.77h-4.69V13.76h4.69v8.98l1.21-2.61l3.28-6.37h5.43l-5.96,10.25l6.97,13.2h-5.36
				L210.51,28.34z"/>
		</g>
	</g>
</g>
<g id="Rank">
	<g>
		<g>
			<path d="M114.35,132.11H86.22V87.04c0-1.35,1.09-2.44,2.44-2.44h23.24c1.35,0,2.44,1.09,2.44,2.44V132.11z"/>
			<g>
				<path class="st3" d="M90.15,98.56h3.27c0.71,0,1.29-0.58,1.29-1.29v-6.61c0-0.71-0.58-1.29-1.29-1.29h-3.27
					c-0.71,0-1.29,0.58-1.29,1.29v6.61C88.86,97.99,89.44,98.56,90.15,98.56z"/>
				<path class="st3" d="M98.88,98.56h3.27c0.71,0,1.29-0.58,1.29-1.29v-6.61c0-0.71-0.58-1.29-1.29-1.29h-3.27
					c-0.71,0-1.29,0.58-1.29,1.29v6.61C97.59,97.99,98.17,98.56,98.88,98.56z"/>
				<path class="st3" d="M110.89,89.38h-3.27c-0.71,0-1.29,0.58-1.29,1.29v6.61c0,0.71,0.58,1.29,1.29,1.29h3.27
					c0.71,0,1.29-0.58,1.29-1.29v-6.61C112.18,89.95,111.6,89.38,110.89,89.38z"/>
				<path class="st3" d="M90.15,109.72h3.27c0.71,0,1.29-0.58,1.29-1.29v-6.61c0-0.71-0.58-1.29-1.29-1.29h-3.27
					c-0.71,0-1.29,0.58-1.29,1.29v6.61C88.86,109.14,89.44,109.72,90.15,109.72z"/>
				<path class="st3" d="M98.88,109.72h3.27c0.71,0,1.29-0.58,1.29-1.29v-6.61c0-0.71-0.58-1.29-1.29-1.29h-3.27
					c-0.71,0-1.29,0.58-1.29,1.29v6.61C97.59,109.14,98.17,109.72,98.88,109.72z"/>
				<path class="st3" d="M110.89,100.53h-3.27c-0.71,0-1.29,0.58-1.29,1.29v6.61c0,0.71,0.58,1.29,1.29,1.29h3.27
					c0.71,0,1.29-0.58,1.29-1.29v-6.61C112.18,101.11,111.6,100.53,110.89,100.53z"/>
				<path class="st3" d="M94.72,119.58v-6.61c0-0.71-0.58-1.29-1.29-1.29h-3.27c-0.71,0-1.29,0.58-1.29,1.29v6.61
					c0,0.71,0.58,1.29,1.29,1.29h3.27C94.14,120.87,94.72,120.3,94.72,119.58z"/>
				<path class="st3" d="M98.88,120.87h3.27c0.71,0,1.29-0.58,1.29-1.29v-6.61c0-0.71-0.58-1.29-1.29-1.29h-3.27
					c-0.71,0-1.29,0.58-1.29,1.29v6.61C97.59,120.3,98.17,120.87,98.88,120.87z"/>
				<path class="st3" d="M110.89,111.69h-3.27c-0.71,0-1.29,0.58-1.29,1.29v6.61c0,0.71,0.58,1.29,1.29,1.29h3.27
					c0.71,0,1.29-0.58,1.29-1.29v-6.61C112.18,112.26,111.6,111.69,110.89,111.69z"/>
				<path class="st3" d="M108.19,122.47H92.85c-0.59,0-1.06,0.47-1.06,1.06v7.38h17.46v-7.38
					C109.25,122.94,108.78,122.47,108.19,122.47z"/>
			</g>
		</g>
		<g>
			<path d="M137.51,132.11h-28.13V87.04c0-1.35,1.09-2.44,2.44-2.44h23.24c1.35,0,2.44,1.09,2.44,2.44V132.11z"/>
			<g>
				<path class="st3" d="M113.31,98.56h3.27c0.71,0,1.29-0.58,1.29-1.29v-6.61c0-0.71-0.58-1.29-1.29-1.29h-3.27
					c-0.71,0-1.29,0.58-1.29,1.29v6.61C112.02,97.99,112.6,98.56,113.31,98.56z"/>
				<path class="st3" d="M122.04,98.56h3.27c0.71,0,1.29-0.58,1.29-1.29v-6.61c0-0.71-0.58-1.29-1.29-1.29h-3.27
					c-0.71,0-1.29,0.58-1.29,1.29v6.61C120.75,97.99,121.33,98.56,122.04,98.56z"/>
				<path class="st3" d="M134.05,89.38h-3.27c-0.71,0-1.29,0.58-1.29,1.29v6.61c0,0.71,0.58,1.29,1.29,1.29h3.27
					c0.71,0,1.29-0.58,1.29-1.29v-6.61C135.34,89.95,134.76,89.38,134.05,89.38z"/>
				<path class="st3" d="M113.31,109.72h3.27c0.71,0,1.29-0.58,1.29-1.29v-6.61c0-0.71-0.58-1.29-1.29-1.29h-3.27
					c-0.71,0-1.29,0.58-1.29,1.29v6.61C112.02,109.14,112.6,109.72,113.31,109.72z"/>
				<path class="st3" d="M122.04,109.72h3.27c0.71,0,1.29-0.58,1.29-1.29v-6.61c0-0.71-0.58-1.29-1.29-1.29h-3.27
					c-0.71,0-1.29,0.58-1.29,1.29v6.61C120.75,109.14,121.33,109.72,122.04,109.72z"/>
				<path class="st3" d="M134.05,100.53h-3.27c-0.71,0-1.29,0.58-1.29,1.29v6.61c0,0.71,0.58,1.29,1.29,1.29h3.27
					c0.71,0,1.29-0.58,1.29-1.29v-6.61C135.34,101.11,134.76,100.53,134.05,100.53z"/>
				<path class="st3" d="M117.87,119.58v-6.61c0-0.71-0.58-1.29-1.29-1.29h-3.27c-0.71,0-1.29,0.58-1.29,1.29v6.61
					c0,0.71,0.58,1.29,1.29,1.29h3.27C117.3,120.87,117.87,120.3,117.87,119.58z"/>
				<path class="st3" d="M122.04,120.87h3.27c0.71,0,1.29-0.58,1.29-1.29v-6.61c0-0.71-0.58-1.29-1.29-1.29h-3.27
					c-0.71,0-1.29,0.58-1.29,1.29v6.61C120.75,120.3,121.33,120.87,122.04,120.87z"/>
				<path class="st3" d="M134.05,111.69h-3.27c-0.71,0-1.29,0.58-1.29,1.29v6.61c0,0.71,0.58,1.29,1.29,1.29h3.27
					c0.71,0,1.29-0.58,1.29-1.29v-6.61C135.34,112.26,134.76,111.69,134.05,111.69z"/>
				<path class="st3" d="M131.35,122.47h-15.34c-0.59,0-1.06,0.47-1.06,1.06v7.38h17.46v-7.38
					C132.41,122.94,131.94,122.47,131.35,122.47z"/>
			</g>
		</g>
		<g>
			<path class="st7" d="M128.14,132.39H95.03V78.91c0-1.35,1.09-2.44,2.44-2.44h28.22c1.35,0,2.44,1.09,2.44,2.44V132.39z"/>
			<g>
				<path class="st3" d="M99.66,92.91h3.85c0.84,0,1.52-0.68,1.52-1.52v-7.78c0-0.84-0.68-1.52-1.52-1.52h-3.85
					c-0.84,0-1.52,0.68-1.52,1.52v7.78C98.14,92.23,98.82,92.91,99.66,92.91z"/>
				<path class="st3" d="M109.94,92.91h3.85c0.84,0,1.52-0.68,1.52-1.52v-7.78c0-0.84-0.68-1.52-1.52-1.52h-3.85
					c-0.84,0-1.52,0.68-1.52,1.52v7.78C108.42,92.23,109.1,92.91,109.94,92.91z"/>
				<path class="st3" d="M124.07,82.09h-3.85c-0.84,0-1.52,0.68-1.52,1.52v7.78c0,0.84,0.68,1.52,1.52,1.52h3.85
					c0.84,0,1.52-0.68,1.52-1.52v-7.78C125.59,82.77,124.91,82.09,124.07,82.09z"/>
				<path class="st3" d="M99.66,106.04h3.85c0.84,0,1.52-0.68,1.52-1.52v-7.78c0-0.84-0.68-1.52-1.52-1.52h-3.85
					c-0.84,0-1.52,0.68-1.52,1.52v7.78C98.14,105.36,98.82,106.04,99.66,106.04z"/>
				<path class="st3" d="M109.94,106.04h3.85c0.84,0,1.52-0.68,1.52-1.52v-7.78c0-0.84-0.68-1.52-1.52-1.52h-3.85
					c-0.84,0-1.52,0.68-1.52,1.52v7.78C108.42,105.36,109.1,106.04,109.94,106.04z"/>
				<path class="st3" d="M124.07,95.22h-3.85c-0.84,0-1.52,0.68-1.52,1.52v7.78c0,0.84,0.68,1.52,1.52,1.52h3.85
					c0.84,0,1.52-0.68,1.52-1.52v-7.78C125.59,95.9,124.91,95.22,124.07,95.22z"/>
				<path class="st3" d="M105.03,117.65v-7.78c0-0.84-0.68-1.52-1.52-1.52h-3.85c-0.84,0-1.52,0.68-1.52,1.52v7.78
					c0,0.84,0.68,1.52,1.52,1.52h3.85C104.35,119.17,105.03,118.49,105.03,117.65z"/>
				<path class="st3" d="M109.94,119.17h3.85c0.84,0,1.52-0.68,1.52-1.52v-7.78c0-0.84-0.68-1.52-1.52-1.52h-3.85
					c-0.84,0-1.52,0.68-1.52,1.52v7.78C108.42,118.49,109.1,119.17,109.94,119.17z"/>
				<path class="st3" d="M124.07,108.35h-3.85c-0.84,0-1.52,0.68-1.52,1.52v7.78c0,0.84,0.68,1.52,1.52,1.52h3.85
					c0.84,0,1.52-0.68,1.52-1.52v-7.78C125.59,109.03,124.91,108.35,124.07,108.35z"/>
				<path class="st3" d="M120.89,121.04h-18.06c-0.69,0-1.25,0.56-1.25,1.25v8.69h20.56v-8.69
					C122.14,121.6,121.58,121.04,120.89,121.04z"/>
			</g>
		</g>
	</g>
	<g id="Text">
		<g>
			<path d="M84.69,107.81h-1.58v7.43h-4.47V93.11h6.4c4.38,0,6.96,2.72,6.96,7.37c0,3-1.1,5.22-3.06,6.39l4.16,8.38h-4.88
				L84.69,107.81z M83.11,103.54h1.86c1.58,0,2.43-1.08,2.43-3.07c0-2.02-0.85-3.1-2.43-3.1h-1.86V103.54z"/>
			<path d="M103.38,111.57h-4.66l-0.72,3.67h-4.63l5.29-22.13h4.79l5.29,22.13h-4.63L103.38,111.57z M102.49,107.31l-0.5-2.53
				c-0.28-1.58-0.66-4.27-0.88-6.07h-0.13c-0.22,1.8-0.57,4.49-0.88,6.07l-0.5,2.53H102.49z"/>
			<path d="M124.84,93.11v22.13h-4.41l-3.72-8.57l-1.99-5.41l-0.09,0.09c0.35,2.78,0.57,6.92,0.57,9.39v4.49h-4.41V93.11h4.41
				l4.19,9.61c0.54,1.39,1.04,2.85,1.58,4.24l0.09-0.09c-0.38-2.78-0.63-6.58-0.63-8.63v-5.12H124.84z"/>
			<path d="M134.38,106.86l-1.23,1.99v6.39h-4.41V93.11h4.41v8.47l1.13-2.47l3.09-6.01h5.1l-5.61,9.67l6.55,12.46h-5.04
				L134.38,106.86z"/>
		</g>
		<g>
			<path class="st5" d="M81.87,107.9h-1.68v7.87h-4.76V92.32h6.8c4.66,0,7.41,2.88,7.41,7.81c0,3.18-1.17,5.53-3.25,6.77l4.42,8.88
				h-5.19L81.87,107.9z M80.19,103.38h1.98c1.68,0,2.58-1.14,2.58-3.25c0-2.14-0.9-3.28-2.58-3.28h-1.98V103.38z"/>
			<path class="st5" d="M101.74,111.89h-4.96l-0.77,3.89h-4.93l5.63-23.46h5.09l5.63,23.46h-4.93L101.74,111.89z M100.8,107.37
				l-0.54-2.68c-0.3-1.68-0.7-4.52-0.94-6.43h-0.13c-0.23,1.91-0.6,4.76-0.94,6.43l-0.54,2.68H100.8z"/>
			<path class="st5" d="M124.55,92.32v23.46h-4.69l-3.95-9.08l-2.11-5.73l-0.1,0.1c0.37,2.95,0.6,7.34,0.6,9.95v4.76h-4.69V92.32
				h4.69l4.46,10.19c0.57,1.47,1.11,3.02,1.68,4.49l0.1-0.1c-0.4-2.95-0.67-6.97-0.67-9.15v-5.43H124.55z"/>
			<path class="st5" d="M134.7,106.9l-1.31,2.11v6.77h-4.69V92.32h4.69v8.98l1.21-2.61l3.28-6.37h5.43l-5.96,10.25l6.97,13.2h-5.36
				L134.7,106.9z"/>
		</g>
	</g>
</g>
<g>
</g>
<g>
</g>
<g>
</g>
<g>
</g>
<g>
</g>
<g>
</g>
</svg>
